<svg width="342" height="79" viewBox="0 0 342 79" fill="none" xmlns="http://www.w3.org/2000/svg">
<g filter="url(#filter0_d_1_552)">
<rect x="3.45682" y="20.3912" width="84.8105" height="57.7434" transform="rotate(-0.279791 3.45682 20.3912)" fill="white"/>
<path fill-rule="evenodd" clip-rule="evenodd" d="M49.8251 40.0143L52.7723 39.9999C53.9917 39.9939 54.9857 40.9869 54.9917 42.2178L55.0062 45.1896C55.0122 46.4196 54.0279 47.4231 52.8086 47.4291L49.8613 47.4435C48.641 47.4494 47.647 46.4556 47.641 45.2256L47.6265 42.2537C47.6204 41.0228 48.6048 40.0202 49.8251 40.0143Z" stroke="#C7C9D9" stroke-width="1.35336" stroke-linecap="round" stroke-linejoin="round"/>
<path fill-rule="evenodd" clip-rule="evenodd" d="M39.1457 40.0664L42.092 40.052C43.3123 40.0461 44.3064 41.039 44.3124 42.2699L44.3269 45.2418C44.3329 46.4717 43.3486 47.4753 42.1283 47.4812L39.182 47.4956C37.9617 47.5016 36.9676 46.5077 36.9616 45.2778L36.9471 42.3059C36.9411 41.075 37.9254 40.0724 39.1457 40.0664Z" stroke="#C7C9D9" stroke-width="1.35336" stroke-linecap="round" stroke-linejoin="round"/>
<path fill-rule="evenodd" clip-rule="evenodd" d="M39.1976 50.6818L42.1438 50.6674C43.3642 50.6614 44.3582 51.6544 44.3642 52.8862L44.3787 55.8571C44.3847 57.088 43.4004 58.0906 42.1801 58.0966L39.2338 58.111C38.0135 58.1169 37.0195 57.124 37.0135 55.8931L36.999 52.9222C36.9929 51.6903 37.9773 50.6877 39.1976 50.6818Z" stroke="#C7C9D9" stroke-width="1.35336" stroke-linecap="round" stroke-linejoin="round"/>
<path fill-rule="evenodd" clip-rule="evenodd" d="M49.8769 50.6296L52.8241 50.6152C54.0435 50.6093 55.0375 51.6022 55.0435 52.834L55.0581 55.805C55.0641 57.0359 54.0798 58.0385 52.8604 58.0444L49.9132 58.0588C48.6929 58.0648 47.6988 57.0719 47.6928 55.841L47.6783 52.87C47.6723 51.6382 48.6566 50.6356 49.8769 50.6296Z" stroke="#C7C9D9" stroke-width="1.35336" stroke-linecap="round" stroke-linejoin="round"/>
<rect x="88.2664" y="19.977" width="84.8105" height="57.7434" transform="rotate(-0.279791 88.2664 19.977)" fill="white"/>
<path fill-rule="evenodd" clip-rule="evenodd" d="M129.866 39.6234C124.883 39.6477 120.863 43.7069 120.888 48.6897C120.912 53.6726 124.971 57.6923 129.954 57.668C134.937 57.6436 138.956 53.5845 138.932 48.6016C138.908 43.6187 134.849 39.599 129.866 39.6234ZM129.872 40.9296C134.134 40.9088 137.605 44.3465 137.626 48.608C137.647 52.8695 134.209 56.341 129.948 56.3618C125.686 56.3826 122.215 52.9448 122.194 48.6833C122.173 44.4219 125.611 40.9504 129.872 40.9296ZM132.607 45.0998L128.182 46.5084C127.978 46.5733 127.819 46.7341 127.756 46.9387L126.391 51.3772C126.236 51.881 126.711 52.3514 127.213 52.1915L131.638 50.783C131.842 50.718 132.001 50.5573 132.064 50.3527L133.429 45.9142C133.584 45.4103 133.109 44.94 132.607 45.0998ZM131.814 46.7223L130.915 49.6413L128.005 50.5682L128.904 47.6491L131.814 46.7223Z" fill="#C7C9D9"/>
<rect x="173.076" y="19.5629" width="84.8105" height="57.7434" transform="rotate(-0.279791 173.076 19.5629)" fill="white"/>
<rect x="209.394" y="66.3026" width="10.8269" height="3.60896" rx="1.80448" transform="rotate(-0.279791 209.394 66.3026)" fill="#FF8500"/>
<path opacity="0.4" d="M223.759 51.7424C223.771 54.2596 221.76 56.3085 219.243 56.3299L219.234 56.3299L210.293 56.3736C207.785 56.3858 205.727 54.3658 205.714 51.8486L205.714 51.8396C205.714 51.8396 205.7 47.8463 205.698 45.8379C205.697 45.4607 206.129 45.2475 206.425 45.4806C208.577 47.1709 212.426 50.2531 212.474 50.2935C213.117 50.8037 213.93 51.0894 214.76 51.0853C215.59 51.0813 216.401 50.7877 217.039 50.2613C217.087 50.2294 220.82 47.2031 222.988 45.4638C223.282 45.2269 223.718 45.4359 223.721 45.8121C223.74 47.8051 223.759 51.7424 223.759 51.7424Z" fill="#FF8500"/>
<path d="M223.241 42.4819C222.453 41.0132 220.911 40.0806 219.218 40.0889L210.214 40.1329C208.521 40.1411 206.988 41.0888 206.214 42.565C206.041 42.8952 206.126 43.3053 206.418 43.5366L213.144 48.8623C213.615 49.2389 214.184 49.4247 214.752 49.4219C214.756 49.4219 214.759 49.4219 214.761 49.4219C214.764 49.4219 214.768 49.4218 214.77 49.4218C215.339 49.4191 215.906 49.2277 216.374 48.8465L223.046 43.4554C223.337 43.2212 223.418 42.8103 223.241 42.4819Z" fill="#FF8500"/>
<circle cx="223.253" cy="40.5207" r="6.7668" transform="rotate(-0.279791 223.253 40.5207)" fill="#FF8500" stroke="white" stroke-width="1.80448"/>
<path d="M221.062 42.3662C221.637 41.8641 222.089 41.4529 222.418 41.1325C222.753 40.806 223.031 40.4678 223.252 40.1179C223.473 39.768 223.583 39.4185 223.581 39.0697C223.579 38.7088 223.49 38.4265 223.315 38.2229C223.146 38.0192 222.877 37.9182 222.511 37.92C222.156 37.9218 221.88 38.0374 221.682 38.2669C221.491 38.4904 221.39 38.7917 221.38 39.1707L220.387 39.1755C220.402 38.4897 220.604 37.9654 220.993 37.6026C221.388 37.2338 221.89 37.0479 222.497 37.0449C223.153 37.0417 223.665 37.2197 224.034 37.5788C224.408 37.9378 224.597 38.4181 224.6 39.0196C224.602 39.4527 224.493 39.8712 224.272 40.2753C224.058 40.6734 223.798 41.0325 223.493 41.3528C223.194 41.6671 222.81 42.0328 222.343 42.4501L221.939 42.813L224.799 42.7991L224.803 43.6562L220.418 43.6776L220.415 42.9287L221.062 42.3662Z" fill="white"/>
<rect x="257.885" y="19.1487" width="84.8105" height="57.7434" transform="rotate(-0.279791 257.885 19.1487)" fill="white"/>
<circle cx="300.028" cy="43.1034" r="4.31093" transform="rotate(-0.279791 300.028 43.1034)" stroke="#C7C9D9" stroke-width="1.35336" stroke-linecap="round" stroke-linejoin="round"/>
<path fill-rule="evenodd" clip-rule="evenodd" d="M293.241 53.4433C293.238 53.1402 293.304 52.8405 293.435 52.5669C293.843 51.7391 295.006 51.2957 295.971 51.0928C296.667 50.9406 297.373 50.8378 298.084 50.7851C299.399 50.6631 300.723 50.6566 302.039 50.7658C302.751 50.8122 303.457 50.908 304.155 51.0528C305.122 51.2463 306.289 51.637 306.706 52.5021C306.973 53.0573 306.976 53.7034 306.714 54.2611C306.306 55.1303 305.143 55.5324 304.178 55.727C303.483 55.8853 302.776 55.9909 302.065 56.0429C300.995 56.139 299.918 56.1608 298.845 56.1082C298.597 56.1094 298.357 56.1106 298.109 56.0622C297.401 56.0177 296.696 55.919 296.002 55.767C295.027 55.5818 293.869 55.191 293.443 54.3259C293.311 54.0504 293.242 53.7489 293.241 53.4433Z" stroke="#C7C9D9" stroke-width="1.35336" stroke-linecap="round" stroke-linejoin="round"/>
</g>
<defs>
<filter id="filter0_d_1_552" x="-14.588" y="0.689774" width="375.61" height="95.4889" filterUnits="userSpaceOnUse" color-interpolation-filters="sRGB">
<feFlood flood-opacity="0" result="BackgroundImageFix"/>
<feColorMatrix in="SourceAlpha" type="matrix" values="0 0 0 0 0 0 0 0 0 0 0 0 0 0 0 0 0 0 127 0" result="hardAlpha"/>
<feOffset/>
<feGaussianBlur stdDeviation="9.0224"/>
<feColorMatrix type="matrix" values="0 0 0 0 0 0 0 0 0 0 0 0 0 0 0 0 0 0 0.08 0"/>
<feBlend mode="normal" in2="BackgroundImageFix" result="effect1_dropShadow_1_552"/>
<feBlend mode="normal" in="SourceGraphic" in2="effect1_dropShadow_1_552" result="shape"/>
</filter>
</defs>
</svg>
