<svg width="22" height="23" viewBox="0 0 22 23" fill="none" xmlns="http://www.w3.org/2000/svg">
<path opacity="0.4" d="M14.9555 2.25503L7.1076 2.29336C4.03906 2.30834 1.98578 4.47087 2.00141 7.67242L2.03749 15.0613C2.05308 18.2538 4.12739 20.3962 7.19593 20.3812L15.0438 20.3429C18.1123 20.3279 20.1566 18.1654 20.141 14.9729L20.1049 7.58402C20.0892 4.38247 18.024 2.24005 14.9555 2.25503Z" fill="#9D9FA0"/>
<path d="M10.0112 14.2609C9.8084 14.2619 9.60527 14.1861 9.44973 14.0322L7.29127 11.8965C6.98019 11.5887 6.97774 11.0877 7.28581 10.7778C7.59386 10.467 8.09442 10.4636 8.4055 10.7714L10.0018 12.3509L13.7202 8.59929C14.0282 8.28848 14.5288 8.28603 14.8399 8.59382C15.1509 8.90161 15.1534 9.40265 14.8453 9.71346L10.5703 14.0267C10.4163 14.1821 10.2139 14.26 10.0112 14.2609Z" fill="#9D9FA0"/>
</svg>
