<svg width="183" height="28" viewBox="0 0 183 28" fill="none" xmlns="http://www.w3.org/2000/svg">
<path d="M0.658572 13.632C0.658572 12.097 0.956543 10.7607 1.55248 9.62295C2.16648 8.48524 3.00622 7.61842 4.07169 7.02248C5.15522 6.40848 6.39224 6.10148 7.78277 6.10148C9.62477 6.10148 11.1327 6.56198 12.3065 7.48298C13.4984 8.40398 14.2388 9.64101 14.5277 11.1941L13.2546 11.1941C13.0198 9.92995 12.4058 8.93671 11.4126 8.21436C10.4374 7.49201 9.22748 7.13083 7.78277 7.13083C6.69924 7.13083 5.71504 7.37463 4.83016 7.86221C3.94528 8.33174 3.23195 9.06313 2.69019 10.0564C2.16648 11.0315 1.90463 12.2234 1.90463 13.632C1.90463 15.0587 2.16648 16.2596 2.69019 17.2347C3.23195 18.2099 3.94528 18.9413 4.83016 19.4289C5.71504 19.9165 6.69924 20.1603 7.78277 20.1603C9.22748 20.1603 10.4374 19.7991 11.4126 19.0767C12.4058 18.3544 13.0198 17.3611 13.2546 16.097L14.5277 16.097C14.2388 17.632 13.4984 18.8691 12.3065 19.8081C11.1146 20.7472 9.60671 21.2167 7.78277 21.2167C6.39224 21.2167 5.15522 20.9097 4.07169 20.2957C3.00622 19.6817 2.16648 18.8059 1.55248 17.6681C0.956543 16.5124 0.658572 15.167 0.658572 13.632ZM28.6432 21.2167C27.2708 21.2167 26.0337 20.9097 24.9322 20.2957C23.8306 19.6817 22.9637 18.8059 22.3317 17.6681C21.7177 16.5124 21.4107 15.167 21.4107 13.632C21.4107 12.1151 21.7267 10.7877 22.3588 9.65004C22.9908 8.49427 23.8577 7.61842 24.9592 7.02248C26.0789 6.40848 27.3249 6.10148 28.6974 6.10148C30.0699 6.10148 31.3069 6.40848 32.4085 7.02248C33.5101 7.61842 34.3679 8.48524 34.9819 9.62295C35.6139 10.7607 35.93 12.097 35.93 13.632C35.93 15.167 35.6139 16.5124 34.9819 17.6681C34.3498 18.8059 33.474 19.6817 32.3543 20.2957C31.2527 20.9097 30.0157 21.2167 28.6432 21.2167ZM28.6432 20.1332C29.7087 20.1332 30.7019 19.8984 31.6229 19.4289C32.562 18.9413 33.3114 18.2099 33.8713 17.2347C34.4311 16.2596 34.711 15.0587 34.711 13.632C34.711 12.2234 34.4311 11.0315 33.8713 10.0564C33.3114 9.08118 32.571 8.35883 31.65 7.8893C30.729 7.40171 29.7358 7.15792 28.6703 7.15792C27.6049 7.15792 26.6116 7.40171 25.6906 7.8893C24.7877 8.35883 24.0563 9.08118 23.4965 10.0564C22.9367 11.0315 22.6567 12.2234 22.6567 13.632C22.6567 15.0587 22.9276 16.2596 23.4694 17.2347C24.0292 18.2099 24.7606 18.9413 25.6635 19.4289C26.5845 19.8984 27.5778 20.1332 28.6432 20.1332ZM60.9468 5.99313C62.6263 5.99313 63.9987 6.53489 65.0642 7.61842C66.1297 8.68389 66.6624 10.2731 66.6624 12.3859L66.6624 21L65.4705 21L65.4705 12.4672C65.4705 10.7155 65.0461 9.37915 64.1974 8.45815C63.3667 7.5191 62.2199 7.04957 60.7572 7.04957C59.2402 7.04957 58.0213 7.57327 57.1003 8.62068C56.1793 9.6681 55.7188 11.185 55.7188 13.1715L55.7188 21L54.5269 21L54.5269 12.4672C54.5269 10.7155 54.1025 9.37915 53.2537 8.45815C52.423 7.5191 51.2763 7.04957 49.8135 7.04957C48.2966 7.04957 47.0776 7.57327 46.1566 8.62068C45.2356 9.6681 44.7751 11.185 44.7751 13.1715L44.7751 21L43.5561 21L43.5561 6.2911L44.7751 6.2911L44.7751 9.48751C45.1905 8.33174 45.8586 7.46492 46.7796 6.88704C47.7187 6.2911 48.7932 5.99313 50.0031 5.99313C51.3395 5.99313 52.4862 6.34527 53.4433 7.04957C54.4185 7.7358 55.0867 8.75613 55.4479 10.1105C55.791 8.75613 56.4592 7.7358 57.4524 7.04957C58.4456 6.34527 59.6104 5.99313 60.9468 5.99313ZM92.3067 5.99313C93.9862 5.99313 95.3586 6.53489 96.4241 7.61842C97.4896 8.68389 98.0223 10.2731 98.0223 12.3859L98.0223 21L96.8304 21L96.8304 12.4672C96.8304 10.7155 96.406 9.37915 95.5573 8.45815C94.7266 7.5191 93.5798 7.04957 92.1171 7.04957C90.6001 7.04957 89.3812 7.57327 88.4602 8.62068C87.5392 9.6681 87.0787 11.185 87.0787 13.1715L87.0787 21L85.8868 21L85.8868 12.4672C85.8868 10.7155 85.4624 9.37915 84.6136 8.45815C83.7829 7.5191 82.6362 7.04957 81.1734 7.04957C79.6565 7.04957 78.4375 7.57327 77.5165 8.62068C76.5955 9.6681 76.135 11.185 76.135 13.1715L76.135 21L74.9161 21L74.9161 6.2911L76.135 6.2911L76.135 9.48751C76.5504 8.33174 77.2185 7.46492 78.1395 6.88704C79.0786 6.2911 80.1531 5.99313 81.363 5.99313C82.6994 5.99313 83.8461 6.34527 84.8033 7.04957C85.7784 7.7358 86.4466 8.75613 86.8078 10.1105C87.1509 8.75613 87.8191 7.7358 88.8123 7.04957C89.8055 6.34527 90.9703 5.99313 92.3067 5.99313ZM118.709 6.2911L118.709 21L117.49 21L117.49 17.8036C117.075 18.9232 116.38 19.781 115.405 20.377C114.448 20.9549 113.346 21.2438 112.1 21.2438C110.348 21.2438 108.913 20.7111 107.793 19.6456C106.691 18.5621 106.141 16.9639 106.141 14.851L106.141 6.2911L107.332 6.2911L107.332 14.7697C107.332 16.5214 107.775 17.8668 108.66 18.8059C109.545 19.7269 110.746 20.1874 112.262 20.1874C113.852 20.1874 115.116 19.6817 116.055 18.6704C117.012 17.6591 117.49 16.1602 117.49 14.1738L117.49 6.2911L118.709 6.2911ZM133.718 5.99313C135.469 5.99313 136.896 6.53489 137.998 7.61842C139.099 8.68389 139.65 10.2731 139.65 12.3859L139.65 21L138.458 21L138.458 12.4672C138.458 10.7155 138.016 9.37915 137.131 8.45815C136.246 7.5191 135.045 7.04957 133.528 7.04957C131.939 7.04957 130.666 7.55521 129.709 8.56651C128.769 9.5778 128.3 11.0767 128.3 13.0632L128.3 21L127.081 21L127.081 6.2911L128.3 6.2911L128.3 9.40624C128.715 8.30466 129.402 7.46492 130.359 6.88704C131.334 6.2911 132.453 5.99313 133.718 5.99313ZM148.509 3.01342C148.22 3.01342 147.976 2.92313 147.778 2.74254C147.579 2.54389 147.48 2.28204 147.48 1.95698C147.48 1.64998 147.579 1.39716 147.778 1.19851C147.976 0.999866 148.22 0.900542 148.509 0.900542C148.798 0.900542 149.042 0.999866 149.24 1.19851C149.439 1.39716 149.538 1.64998 149.538 1.95698C149.538 2.28204 149.439 2.54389 149.24 2.74254C149.042 2.92313 148.798 3.01342 148.509 3.01342ZM149.105 6.2911L149.105 21L147.886 21L147.886 6.2911L149.105 6.2911ZM159.316 7.34754L159.316 17.0722C159.316 18.1557 159.515 18.9052 159.912 19.3205C160.309 19.7178 161.014 19.9165 162.025 19.9165L163.677 19.9165L163.677 21L161.835 21C160.553 21 159.605 20.702 158.991 20.1061C158.395 19.4921 158.097 18.4808 158.097 17.0722L158.097 7.34754L155.876 7.34754L155.876 6.2911L158.097 6.2911L158.097 2.55292L159.316 2.55292L159.316 6.2911L163.677 6.2911L163.677 7.34754L159.316 7.34754ZM182.305 6.2911L173.746 27.9075L172.499 27.9075L175.235 21L169.059 6.2911L170.387 6.2911L175.913 19.6456L181.059 6.2911L182.305 6.2911Z" fill="black"/>
</svg>
