<svg width="23" height="23" viewBox="0 0 23 23" fill="none" xmlns="http://www.w3.org/2000/svg">
<path d="M20.3433 9.50014L19.6166 9.50369L19.6164 9.46624L11.4964 9.5059L11.514 13.1148L16.6129 13.0899C15.8793 15.1944 13.8878 16.7122 11.5316 16.7237C8.54206 16.7383 6.10639 14.3263 6.09179 11.3368C6.07719 8.34725 8.48919 5.91158 11.4787 5.89698C12.8587 5.89024 14.1167 6.4047 15.0767 7.25038L17.6162 4.68596C15.9975 3.19207 13.8376 2.27646 11.4611 2.28806C6.47854 2.3124 2.45854 6.37185 2.48287 11.3544C2.5072 16.337 6.56666 20.357 11.5492 20.3326C16.5318 20.3083 20.5518 16.2489 20.5275 11.2663C20.5245 10.6614 20.4594 10.0711 20.3433 9.50014Z" fill="#FFC107"/>
<path d="M3.50262 7.14992L6.47751 9.30937C7.26989 7.31965 9.20554 5.9081 11.4787 5.89699C12.8587 5.89026 14.1167 6.40471 15.0767 7.25039L17.6162 4.68598C15.9975 3.19209 13.8376 2.27647 11.4611 2.28808C7.99562 2.305 4.99985 4.27616 3.50262 7.14992Z" fill="#FF3D00"/>
<path d="M11.5492 20.3327C13.8797 20.3213 15.9929 19.4191 17.5868 17.9609L14.7828 15.6116C13.85 16.3282 12.7079 16.7189 11.5316 16.7237C9.1849 16.7352 7.18502 15.2486 6.42416 13.164L3.49306 15.4453C5.00052 18.3598 8.0427 20.3498 11.5492 20.3327Z" fill="#4CAF50"/>
<path d="M20.3433 9.5001L19.6166 9.50365L19.6164 9.46621L11.4963 9.50586L11.514 13.1148L16.6129 13.0899C16.262 14.0915 15.6253 14.9683 14.7815 15.612L14.7828 15.6111L17.5868 17.9604C17.3901 18.1409 20.5495 15.7774 20.5274 11.2663C20.5245 10.6613 20.4593 10.0711 20.3433 9.5001Z" fill="#1976D2"/>
</svg>
