<svg width="86" height="60" viewBox="0 0 86 60" fill="none" xmlns="http://www.w3.org/2000/svg">
<rect x="0.456818" y="1.39117" width="84.8105" height="57.7434" transform="rotate(-0.279791 0.456818 1.39117)" fill="white"/>
<path fill-rule="evenodd" clip-rule="evenodd" d="M46.8251 21.0143L49.7723 20.9999C50.9917 20.9939 51.9857 21.9869 51.9917 23.2178L52.0062 26.1896C52.0122 27.4196 51.0279 28.4231 49.8086 28.4291L46.8613 28.4435C45.641 28.4494 44.647 27.4556 44.641 26.2256L44.6265 23.2537C44.6204 22.0228 45.6048 21.0202 46.8251 21.0143Z" stroke="#C7C9D9" stroke-width="1.35336" stroke-linecap="round" stroke-linejoin="round"/>
<path fill-rule="evenodd" clip-rule="evenodd" d="M36.1457 21.0664L39.092 21.052C40.3123 21.0461 41.3064 22.039 41.3124 23.2699L41.3269 26.2418C41.3329 27.4717 40.3486 28.4753 39.1283 28.4812L36.182 28.4956C34.9617 28.5016 33.9676 27.5077 33.9616 26.2778L33.9471 23.3059C33.9411 22.075 34.9254 21.0724 36.1457 21.0664Z" stroke="#C7C9D9" stroke-width="1.35336" stroke-linecap="round" stroke-linejoin="round"/>
<path fill-rule="evenodd" clip-rule="evenodd" d="M36.1976 31.6818L39.1438 31.6674C40.3642 31.6614 41.3582 32.6544 41.3642 33.8862L41.3787 36.8571C41.3847 38.088 40.4004 39.0906 39.1801 39.0966L36.2338 39.111C35.0135 39.1169 34.0195 38.124 34.0135 36.8931L33.999 33.9222C33.9929 32.6903 34.9773 31.6877 36.1976 31.6818Z" stroke="#C7C9D9" stroke-width="1.35336" stroke-linecap="round" stroke-linejoin="round"/>
<path fill-rule="evenodd" clip-rule="evenodd" d="M46.8769 31.6296L49.8241 31.6152C51.0435 31.6093 52.0375 32.6022 52.0435 33.834L52.0581 36.805C52.0641 38.0359 51.0798 39.0385 49.8604 39.0444L46.9132 39.0588C45.6929 39.0648 44.6988 38.0719 44.6928 36.841L44.6783 33.87C44.6723 32.6382 45.6566 31.6356 46.8769 31.6296Z" stroke="#C7C9D9" stroke-width="1.35336" stroke-linecap="round" stroke-linejoin="round"/>
</svg>
