<svg width="84" height="59" viewBox="0 0 84 59" fill="none" xmlns="http://www.w3.org/2000/svg">
<rect x="0.109741" y="1.00055" width="84.8105" height="57.7434" transform="rotate(-0.279791 0.109741 1.00055)" fill="white"/>
<circle cx="42.2526" cy="24.9552" r="4.31093" transform="rotate(-0.279791 42.2526 24.9552)" stroke="#C7C9D9" stroke-width="1.35336" stroke-linecap="round" stroke-linejoin="round"/>
<path fill-rule="evenodd" clip-rule="evenodd" d="M35.465 35.2951C35.4624 34.9921 35.5287 34.6924 35.6589 34.4187C36.0678 33.5909 37.2301 33.1475 38.1954 32.9446C38.8915 32.7925 39.5975 32.6897 40.3081 32.637C41.6236 32.5149 42.9472 32.5085 44.2638 32.6176C44.9749 32.664 45.6818 32.7599 46.3794 32.9046C47.3466 33.0981 48.513 33.4888 48.9302 34.3539C49.1975 34.9091 49.2007 35.5552 48.9388 36.113C48.5301 36.9821 47.3676 37.3842 46.4023 37.5789C45.707 37.7371 45.0008 37.8427 44.2896 37.8948C43.2189 37.9908 42.1428 38.0126 41.0691 37.96C40.8213 37.9612 40.5818 37.9624 40.3338 37.9141C39.6249 37.8696 38.9204 37.7709 38.2265 37.6188C37.251 37.4336 36.0929 37.0429 35.6675 36.1778C35.5353 35.9023 35.4661 35.6007 35.465 35.2951Z" stroke="#C7C9D9" stroke-width="1.35336" stroke-linecap="round" stroke-linejoin="round"/>
</svg>
