<svg width="86" height="58" viewBox="0 0 86 58" fill="none" xmlns="http://www.w3.org/2000/svg">
<rect x="0.300201" y="0.414688" width="84.8105" height="57.7434" transform="rotate(-0.279791 0.300201 0.414688)" fill="white"/>
<path d="M46.6813 25.9575L42.848 29.0748C42.1225 29.6493 41.1016 29.6543 40.3705 29.0869L36.4739 26.0073" stroke="#BDBDBD" stroke-width="1.35336" stroke-linecap="round" stroke-linejoin="round"/>
<path fill-rule="evenodd" clip-rule="evenodd" d="M37.2918 20.9858L45.7979 20.9443C47.0245 20.952 48.1943 21.4648 49.0351 22.3632C49.8758 23.2616 50.3141 24.4672 50.2477 25.6992L50.2765 31.5888C50.3549 32.8201 49.9284 34.0299 49.0965 34.9364C48.2646 35.843 47.0997 36.3672 45.8733 36.3869L37.3672 36.4285C34.7328 36.4413 32.9467 34.3068 32.9339 31.6735L32.9051 25.7838C32.8923 23.1505 34.6573 20.9987 37.2918 20.9858Z" stroke="#BDBDBD" stroke-width="1.35336" stroke-linecap="round" stroke-linejoin="round"/>
<circle cx="50.4775" cy="21.3725" r="6.7668" transform="rotate(-0.279791 50.4775 21.3725)" fill="#FF8500" stroke="white" stroke-width="1.80448"/>
<path d="M48.2858 23.218C48.8608 22.7159 49.313 22.3047 49.6422 21.9843C49.9775 21.6579 50.2555 21.3197 50.4764 20.9697C50.6972 20.6198 50.8068 20.2704 50.8051 19.9215C50.8033 19.5606 50.7147 19.2783 50.5393 19.0747C50.3699 18.871 50.1017 18.7701 49.7348 18.7719C49.3799 18.7736 49.1038 18.8892 48.9064 19.1188C48.715 19.3422 48.6142 19.6435 48.6041 20.0225L47.6116 20.0273C47.6263 19.3415 47.8283 18.8173 48.2175 18.4545C48.6127 18.0856 49.114 17.8997 49.7215 17.8967C50.3771 17.8935 50.8893 18.0715 51.2579 18.4306C51.6326 18.7897 51.8214 19.2699 51.8244 19.8714C51.8265 20.3045 51.7172 20.7231 51.4967 21.1271C51.2821 21.5252 51.0222 21.8843 50.717 22.2046C50.4178 22.5189 50.0346 22.8847 49.5674 23.302L49.1632 23.6648L52.0233 23.6509L52.0275 24.508L47.6426 24.5294L47.639 23.7806L48.2858 23.218Z" fill="white"/>
</svg>
