<svg width="86" height="59" viewBox="0 0 86 59" fill="none" xmlns="http://www.w3.org/2000/svg">
<rect x="0.266357" y="0.97702" width="84.8105" height="57.7434" transform="rotate(-0.279791 0.266357 0.97702)" fill="white"/>
<path fill-rule="evenodd" clip-rule="evenodd" d="M41.8658 20.6234C36.8829 20.6477 32.8632 24.7069 32.8876 29.6897C32.9119 34.6726 36.971 38.6923 41.9539 38.668C46.9368 38.6436 50.9565 34.5845 50.9321 29.6016C50.9078 24.6187 46.8487 20.599 41.8658 20.6234ZM41.8722 21.9296C46.1337 21.9088 49.6052 25.3465 49.626 29.608C49.6468 33.8695 46.209 37.341 41.9475 37.3618C37.6861 37.3826 34.2146 33.9448 34.1938 29.6833C34.173 25.4219 37.6107 21.9504 41.8722 21.9296ZM44.6069 26.0998L40.1819 27.5084C39.978 27.5733 39.8187 27.7341 39.7558 27.9387L38.3906 32.3772C38.2356 32.881 38.7106 33.3514 39.2129 33.1915L43.6378 31.783C43.8418 31.718 44.001 31.5573 44.064 31.3527L45.4292 26.9142C45.5842 26.4103 45.1092 25.94 44.6069 26.0998ZM43.8137 27.7223L42.9153 30.6413L40.0052 31.5682L40.9036 28.6491L43.8137 27.7223Z" fill="#C7C9D9"/>
</svg>
