<svg width="111" height="46" viewBox="0 0 111 46" fill="none" xmlns="http://www.w3.org/2000/svg">
<g clip-path="url(#clip0_950_160)">
<path d="M5.71622 36.5045L5.01518 41.9876L8.0138 40.1685L11.03 41.9583L10.2755 36.4763M12.189 32.9301C12.2003 35.2554 10.3245 37.1497 7.99911 37.161C5.67377 37.1724 3.77951 35.2965 3.76815 32.9712C3.75679 30.6459 5.63265 28.7516 7.95799 28.7402C10.2833 28.7289 12.1776 30.6047 12.189 32.9301Z" stroke="#FCD034" stroke-width="1.20299" stroke-linecap="round" stroke-linejoin="round"/>
</g>
<path d="M29.9098 36.5009L27.5225 36.5126L27.5344 38.963L25.8671 38.9712L25.8552 36.5207L23.4679 36.5324L23.4603 34.9914L25.8476 34.9797L25.8357 32.5292L27.503 32.5211L27.5149 34.9716L29.9022 34.9599L29.9098 36.5009ZM31.3793 32.6411L31.3713 31.0117L34.4154 30.9968L34.4604 40.205L32.6415 40.2139L32.6045 32.6351L31.3793 32.6411ZM40.9482 33.2639C40.8623 32.9106 40.7136 32.6461 40.5022 32.4703C40.2993 32.2944 40.0041 32.2074 39.6168 32.2093C39.0357 32.2122 38.6074 32.45 38.3318 32.923C38.0646 33.3874 37.9294 34.146 37.9261 35.1986C38.1266 34.8608 38.42 34.5983 38.8065 34.4112C39.1929 34.2156 39.6134 34.1167 40.0682 34.1145C40.6155 34.1118 41.1003 34.2273 41.5225 34.461C41.9447 34.6948 42.2748 35.0384 42.5128 35.492C42.7507 35.9371 42.8713 36.4755 42.8743 37.1071C42.8773 37.7049 42.7578 38.2403 42.5159 38.713C42.2823 39.1773 41.9347 39.5411 41.4728 39.8044C41.0109 40.0677 40.46 40.2009 39.82 40.2041C38.9442 40.2083 38.2528 40.018 37.7457 39.6331C37.2469 39.2482 36.8948 38.711 36.6894 38.0215C36.4923 37.3235 36.3912 36.465 36.3863 35.4461C36.3787 33.9051 36.6383 32.7418 37.165 31.956C37.6917 31.1619 38.5276 30.762 39.6728 30.7564C40.557 30.7521 41.2445 30.9887 41.7352 31.4663C42.226 31.9439 42.511 32.5404 42.5903 33.2558L40.9482 33.2639ZM39.6711 35.569C39.2248 35.5712 38.8507 35.7036 38.5488 35.9661C38.2469 36.2286 38.0972 36.6083 38.0996 37.1051C38.102 37.6019 38.2429 37.9928 38.5222 38.2778C38.8099 38.5627 39.2106 38.7039 39.7242 38.7014C40.179 38.6992 40.5362 38.5585 40.7959 38.2793C41.064 38.0001 41.1969 37.6247 41.1946 37.1532C41.1922 36.6648 41.0598 36.278 40.7973 35.993C40.5433 35.7079 40.1679 35.5666 39.6711 35.569ZM44.2638 35.4329C44.2567 33.9761 44.5122 32.8338 45.0302 32.006C45.5567 31.1782 46.4305 30.7613 47.6515 30.7553C48.8725 30.7494 49.7461 31.1577 50.2722 31.9804C50.8067 32.8031 51.0776 33.9428 51.0847 35.3996C51.0918 36.8648 50.8322 38.0156 50.3057 38.8518C49.7877 39.688 48.9182 40.1091 47.6972 40.1151C46.4762 40.121 45.5984 39.7085 45.0638 38.8774C44.5376 38.0463 44.271 36.8981 44.2638 35.4329ZM49.3416 35.4081C49.3385 34.785 49.2939 34.2631 49.2076 33.8425C49.1297 33.4134 48.968 33.0647 48.7225 32.7964C48.4854 32.5281 48.1311 32.3951 47.6595 32.3974C47.1879 32.3997 46.8307 32.5362 46.5878 32.8068C46.3534 33.0775 46.1951 33.4277 46.113 33.8576C46.0392 34.279 46.0039 34.8013 46.0069 35.4244C46.0101 36.0644 46.0506 36.6031 46.1285 37.0406C46.2064 37.4697 46.3681 37.8184 46.6136 38.0867C46.8591 38.3465 47.2176 38.4753 47.6892 38.473C48.1607 38.4707 48.518 38.3384 48.7609 38.0762C49.0038 37.8055 49.1621 37.4553 49.2358 37.0255C49.3094 36.5872 49.3447 36.0481 49.3416 35.4081ZM52.4297 35.393C52.4226 33.9362 52.6781 32.7939 53.1961 31.9662C53.7226 31.1383 54.5963 30.7214 55.8174 30.7155C57.0384 30.7095 57.912 31.1179 58.4381 31.9406C58.9726 32.7632 59.2434 33.9029 59.2506 35.3597C59.2577 36.825 58.9981 37.9757 58.4716 38.8119C57.9536 39.6481 57.0841 40.0692 55.8631 40.0752C54.6421 40.0812 53.7643 39.6686 53.2297 38.8375C52.7035 38.0064 52.4369 36.8583 52.4297 35.393ZM57.5074 35.3682C57.5044 34.7451 57.4598 34.2232 57.3735 33.8026C57.2956 33.3735 57.1339 33.0248 56.8884 32.7565C56.6513 32.4882 56.297 32.3552 55.8254 32.3575C55.3538 32.3598 54.9966 32.4963 54.7537 32.767C54.5192 33.0376 54.361 33.3878 54.2788 33.8177C54.2051 34.2391 54.1698 34.7614 54.1728 35.3845C54.1759 36.0245 54.2165 36.5633 54.2944 37.0008C54.3723 37.4299 54.534 37.7785 54.7795 38.0468C55.025 38.3067 55.3835 38.4354 55.8551 38.4331C56.3266 38.4308 56.6839 38.2986 56.9268 38.0363C57.1697 37.7657 57.328 37.4154 57.4017 36.9856C57.4753 36.5473 57.5106 36.0082 57.5074 35.3682ZM69.7873 33.8051C69.7909 34.5377 69.5412 35.1495 69.0384 35.6404C68.5439 36.1228 67.783 36.3665 66.7557 36.3715L65.0631 36.3798L65.081 40.0554L63.9316 40.0611L63.8886 31.2571L66.7306 31.2432C67.7243 31.2384 68.4791 31.4747 68.9951 31.9522C69.5195 32.4296 69.7836 33.0473 69.7873 33.8051ZM66.751 35.4242C67.391 35.421 67.8619 35.2798 68.1637 35.0004C68.4655 34.7211 68.6151 34.3245 68.6126 33.8109C68.6073 32.7246 67.9815 32.1845 66.7352 32.1906L65.0427 32.1988L65.0584 35.4324L66.751 35.4242ZM74.2657 40.1243C73.6173 40.1274 73.0272 39.983 72.4952 39.6908C71.9717 39.3986 71.557 38.9838 71.2512 38.4464C70.9538 37.9005 70.8034 37.2696 70.7999 36.5539C70.7965 35.8465 70.945 35.2226 71.2455 34.6822C71.5544 34.1333 71.9734 33.7145 72.5025 33.4256C73.0316 33.1282 73.6245 32.978 74.2814 32.9748C74.9382 32.9716 75.5326 33.116 76.0645 33.4082C76.5964 33.6919 77.0153 34.1025 77.321 34.6399C77.6353 35.1773 77.7941 35.8039 77.7976 36.5197C77.8011 37.2355 77.6442 37.8678 77.3269 38.4167C77.0179 38.9572 76.5947 39.3761 76.0572 39.6734C75.5197 39.9708 74.9226 40.1211 74.2657 40.1243ZM74.2608 39.1138C74.6734 39.1118 75.0603 39.013 75.4215 38.8176C75.7826 38.6221 76.0717 38.3302 76.2888 37.9418C76.5142 37.5533 76.6256 37.0812 76.6229 36.5254C76.6202 35.9696 76.5084 35.4986 76.2876 35.1123C76.0667 34.726 75.779 34.4411 75.4245 34.2576C75.0698 34.0656 74.6862 33.9707 74.2736 33.9727C73.8526 33.9748 73.4657 34.0735 73.1129 34.2689C72.7686 34.4558 72.4921 34.7435 72.2835 35.1319C72.0749 35.5203 71.9719 35.9923 71.9746 36.5481C71.9774 37.1123 72.0807 37.5876 72.2847 37.974C72.4971 38.3603 72.7764 38.6495 73.1226 38.8414C73.4688 39.025 73.8482 39.1158 74.2608 39.1138ZM79.8802 31.9369C79.6613 31.938 79.4757 31.8631 79.3234 31.7123C79.171 31.5614 79.0943 31.3765 79.0933 31.1576C79.0922 30.9387 79.1671 30.753 79.3179 30.6007C79.4688 30.4484 79.6536 30.3717 79.8726 30.3706C80.0831 30.3696 80.2603 30.4445 80.4042 30.5954C80.5565 30.7462 80.6332 30.9311 80.6343 31.1501C80.6354 31.369 80.5605 31.5546 80.4096 31.707C80.2672 31.8592 80.0908 31.9359 79.8802 31.9369ZM80.4415 33.0584L80.4753 39.9803L79.3259 39.9859L79.2921 33.064L80.4415 33.0584ZM85.7724 32.906C86.6145 32.9019 87.2979 33.1554 87.8225 33.6665C88.347 34.1692 88.6116 34.9006 88.6163 35.8605L88.6362 39.9404L87.4994 39.946L87.4803 36.0303C87.4769 35.3398 87.3017 34.8143 86.9547 34.4539C86.6077 34.0851 86.1352 33.9021 85.5373 33.9051C84.931 33.908 84.4477 34.0999 84.0875 34.4806C83.7357 34.8612 83.5615 35.4136 83.5651 36.1378L83.5838 39.9651L82.4343 39.9707L82.4005 33.0488L83.55 33.0432L83.5548 34.0284C83.7804 33.6736 84.0864 33.3985 84.4728 33.2029C84.8677 33.0073 85.3009 32.9083 85.7724 32.906ZM91.8867 33.9498L91.9067 38.0297C91.9083 38.3666 91.9811 38.6062 92.1249 38.7487C92.2687 38.8827 92.5175 38.9488 92.8711 38.9471L93.7174 38.943L93.7222 39.9156L92.6864 39.9206C92.0464 39.9238 91.5657 39.7787 91.2443 39.4856C90.9229 39.1924 90.7605 38.709 90.7572 38.0353L90.7373 33.9555L89.8405 33.9598L89.8359 33.0125L90.7327 33.0081L90.7242 31.265L91.8736 31.2594L91.8821 33.0025L93.6884 32.9937L93.693 33.941L91.8867 33.9498ZM97.5659 40.0105C97.0354 40.0131 96.5592 39.927 96.1373 39.7522C95.7153 39.569 95.3815 39.318 95.1357 38.9992C94.8899 38.672 94.7533 38.2979 94.726 37.877L95.9133 37.8712C95.9487 38.2163 96.1101 38.4976 96.3975 38.7152C96.6933 38.9327 97.0769 39.0403 97.5485 39.038C97.9864 39.0358 98.3312 38.9373 98.5828 38.7424C98.8345 38.5475 98.9596 38.3026 98.9582 38.0079C98.9567 37.7048 98.8209 37.4823 98.5507 37.3404C98.2805 37.1902 97.863 37.0449 97.2981 36.9045C96.7838 36.7722 96.3621 36.6396 96.033 36.5064C95.7123 36.3648 95.4334 36.1599 95.1963 35.8916C94.9676 35.6148 94.8521 35.2532 94.85 34.8069C94.8482 34.4533 94.9519 34.1286 95.161 33.8328C95.3701 33.537 95.6679 33.304 96.0544 33.1337C96.4409 32.955 96.8826 32.8644 97.3794 32.862C98.1457 32.8582 98.7656 33.0489 99.239 33.4339C99.7125 33.819 99.9677 34.3483 100.005 35.0218L98.8552 35.0274C98.8282 34.6654 98.6794 34.3756 98.4089 34.158C98.1468 33.9403 97.7926 33.8326 97.3462 33.8348C96.9336 33.8368 96.6057 33.9268 96.3623 34.1048C96.119 34.2829 95.998 34.515 95.9994 34.8013C96.0005 35.0287 96.073 35.2178 96.2169 35.3687C96.3692 35.5111 96.555 35.6281 96.7744 35.7196C97.0022 35.8027 97.3142 35.8981 97.7105 36.0056C98.208 36.1379 98.6129 36.2707 98.9251 36.4039C99.2373 36.5287 99.5035 36.7211 99.7237 36.981C99.9523 37.241 100.072 37.5814 100.082 38.0024C100.084 38.3814 99.9806 38.7229 99.7716 39.0271C99.5626 39.3313 99.2648 39.5727 98.8783 39.7515C98.5002 39.9217 98.0627 40.0081 97.5659 40.0105Z" fill="#4ED442"/>
<path d="M12.1052 5.91702L12.1547 16.0509L9.68616 16.0629L9.66579 11.891L5.8259 11.9098L5.84627 16.0817L3.37778 16.0937L3.32829 5.95988L5.79679 5.94782L5.81617 9.91763L9.65606 9.89888L9.63668 5.92907L12.1052 5.91702ZM13.4261 12.0026C13.4221 11.1749 13.5725 10.4476 13.8774 9.82052C14.192 9.19343 14.6179 8.71015 15.1551 8.37068C15.6924 8.03122 16.2931 7.85986 16.9571 7.85662C17.5249 7.85385 18.0211 7.96691 18.4457 8.19582C18.8799 8.42467 19.2134 8.7262 19.4462 9.1004L19.4406 7.95998L21.9091 7.94793L21.9485 16.003L19.48 16.0151L19.4744 14.8747C19.2356 15.2512 18.9003 15.556 18.4683 15.789C18.046 16.0221 17.551 16.14 16.9832 16.1428C16.3287 16.146 15.7313 15.9805 15.1907 15.6463C14.6501 15.3024 14.2194 14.8185 13.8988 14.1945C13.5877 13.5609 13.4302 12.8302 13.4261 12.0026ZM19.4603 11.9875C19.4573 11.3716 19.2817 10.8865 18.9335 10.5321C18.5949 10.1776 18.1802 10.0016 17.6894 10.004C17.1986 10.0064 16.7808 10.1865 16.4361 10.5443C16.101 10.8924 15.9349 11.3744 15.9379 11.9903C15.9409 12.6062 16.1118 13.0962 16.4504 13.4603C16.7986 13.8147 17.2181 13.9907 17.7089 13.9883C18.1997 13.9859 18.6126 13.8058 18.9477 13.4481C19.2925 13.0903 19.4633 12.6035 19.4603 11.9875ZM26.1507 5.29986L26.2028 15.9823L23.7343 15.9943L23.6822 5.31192L26.1507 5.29986ZM30.408 5.27907L30.4602 15.9615L27.9917 15.9735L27.9396 5.29113L30.408 5.27907ZM35.9163 16.0503C35.1272 16.0542 34.4142 15.8892 33.7774 15.5555C33.1502 15.2217 32.6522 14.7429 32.2835 14.1192C31.9243 13.4954 31.7427 12.7648 31.7386 11.9276C31.7346 11.0999 31.9139 10.3724 32.2765 9.74511C32.6391 9.10815 33.1372 8.61971 33.7707 8.27978C34.4043 7.93984 35.1156 7.76795 35.9047 7.76409C36.6939 7.76024 37.4069 7.92518 38.0437 8.25891C38.6805 8.59264 39.1833 9.0762 39.5521 9.70958C39.9209 10.3333 40.1073 11.059 40.1113 11.8867C40.1154 12.7143 39.9313 13.4467 39.559 14.0837C39.1964 14.711 38.6935 15.1946 38.0503 15.5346C37.4168 15.8746 36.7055 16.0465 35.9163 16.0503ZM35.9059 13.9138C36.3775 13.9115 36.776 13.7363 37.1015 13.3883C37.4367 13.0402 37.6027 12.5437 37.5995 11.899C37.5964 11.2542 37.4303 10.7593 37.1014 10.4145C36.7822 10.0696 36.3867 9.89827 35.9152 9.90057C35.434 9.90292 35.0354 10.0781 34.7196 10.4261C34.4036 10.7645 34.2472 11.2609 34.2504 11.9153C34.2536 12.5601 34.41 13.055 34.7196 13.3999C35.0389 13.7448 35.4343 13.9161 35.9059 13.9138ZM44.0856 13.614L42.5035 17.7649L40.93 17.7726L41.747 13.6255L44.0856 13.614ZM52.3115 15.9558C51.5704 15.9594 50.9058 15.8424 50.3176 15.6046C49.7293 15.3669 49.256 15.0131 48.8977 14.5433C48.5489 14.0734 48.3633 13.5065 48.3408 12.8426L50.9681 12.8298C51.0084 13.2049 51.1397 13.493 51.3621 13.694C51.5844 13.8854 51.8735 13.9802 52.2296 13.9785C52.5953 13.9767 52.8836 13.8935 53.0946 13.7288C53.3054 13.5546 53.4101 13.3183 53.4087 13.0199C53.4075 12.7697 53.3198 12.5632 53.1458 12.4005C52.9814 12.2377 52.7738 12.1039 52.5231 11.9993C52.282 11.8946 51.935 11.776 51.482 11.6435C50.8266 11.4446 50.2915 11.2451 49.8767 11.045C49.4619 10.8449 49.1043 10.5483 48.8041 10.1552C48.5038 9.76211 48.3521 9.24796 48.349 8.61279C48.3444 7.66966 48.6824 6.93178 49.3632 6.39913C50.0438 5.85686 50.9327 5.58305 52.0298 5.57769C53.1462 5.57224 54.0473 5.83731 54.7332 6.37291C55.4191 6.89888 55.7884 7.63812 55.8412 8.59064L53.1706 8.60368C53.1497 8.27657 53.0282 8.02213 52.806 7.84036C52.5837 7.64896 52.2993 7.55411 51.9528 7.5558C51.6545 7.55726 51.4143 7.64024 51.2323 7.80473C51.0502 7.95961 50.9598 8.18621 50.9613 8.48455C50.9629 8.81176 51.1181 9.06604 51.427 9.24738C51.7358 9.42873 52.218 9.62367 52.8734 9.8322C53.5289 10.0503 54.0593 10.2595 54.4645 10.4596C54.8793 10.6597 55.2368 10.9515 55.537 11.335C55.8372 11.7185 55.9888 12.2134 55.9918 12.8197C55.9946 13.3971 55.848 13.9223 55.5519 14.3953C55.2655 14.8683 54.8439 15.2457 54.2871 15.5275C53.7303 15.8093 53.0717 15.9521 52.3115 15.9558ZM57.0151 11.7897C57.011 10.9621 57.1615 10.2347 57.4664 9.60766C57.7809 8.98057 58.2068 8.49729 58.7441 8.15782C59.2814 7.81836 59.882 7.64701 60.5461 7.64376C61.1139 7.64099 61.6101 7.75405 62.0346 7.98296C62.4688 8.21181 62.8023 8.51334 63.0352 8.88754L63.0296 7.74712L65.4981 7.73507L65.5374 15.7902L63.0689 15.8022L63.0633 14.6618C62.8246 15.0383 62.4892 15.3431 62.0573 15.5762C61.635 15.8092 61.1399 15.9271 60.5721 15.9299C59.9177 15.9331 59.3202 15.7676 58.7796 15.4334C58.239 15.0896 57.8084 14.6057 57.4877 13.9817C57.1767 13.348 57.0191 12.6173 57.0151 11.7897ZM63.0492 11.7747C63.0462 11.1588 62.8706 10.6736 62.5224 10.3192C62.1839 9.96477 61.7692 9.78876 61.2784 9.79115C60.7876 9.79355 60.3698 9.97363 60.0251 10.3314C59.6899 10.6795 59.5239 11.1615 59.5269 11.7774C59.5299 12.3934 59.7007 12.8834 60.0393 13.2474C60.3875 13.6018 60.807 13.7778 61.2978 13.7754C61.7886 13.773 62.2016 13.5929 62.5367 13.2352C62.8814 12.8774 63.0523 12.3906 63.0492 11.7747ZM77.5617 7.58954C78.5626 7.58465 79.358 7.88393 79.948 8.48736C80.5477 9.09074 80.8501 9.93137 80.8554 11.0092L80.8784 15.7153L78.4243 15.7272L78.4029 11.3532C78.4004 10.8335 78.2589 10.4348 77.9785 10.1571C77.7076 9.86972 77.3315 9.7272 76.8504 9.72955C76.3692 9.7319 75.9897 9.87811 75.7121 10.1682C75.4439 10.4486 75.3112 10.8486 75.3137 11.3683L75.3351 15.7423L72.881 15.7543L72.8596 11.3803C72.8571 10.8606 72.7156 10.4619 72.4352 10.1842C72.1643 9.89679 71.7882 9.75427 71.3071 9.75662C70.8259 9.75897 70.4464 9.90518 70.1688 10.1953C69.9007 10.4757 69.7679 10.8757 69.7704 11.3954L69.7918 15.7694L67.3233 15.7815L67.2839 7.72635L69.7524 7.71429L69.7574 8.72479C70.0059 8.38674 70.3319 8.12048 70.7351 7.92603C71.1383 7.72196 71.595 7.61868 72.105 7.61619C72.7113 7.61323 73.2509 7.74052 73.7237 7.99806C74.2062 8.25555 74.5833 8.62423 74.8551 9.1041C75.1321 8.66005 75.5104 8.2973 75.9903 8.01586C76.4701 7.73442 76.9939 7.59231 77.5617 7.58954ZM90.5195 7.61288L90.5588 15.668L88.0903 15.68L88.085 14.5829C87.8365 14.9402 87.4963 15.2306 87.0643 15.4541C86.6419 15.6679 86.1708 15.776 85.6511 15.7786C85.0352 15.7816 84.4908 15.6495 84.0179 15.3823C83.545 15.1055 83.1773 14.7079 82.915 14.1895C82.6526 13.6711 82.5197 13.0606 82.5162 12.3581L82.4933 7.65208L84.9473 7.64009L84.9687 12.0141C84.9713 12.553 85.1129 12.971 85.3935 13.268C85.674 13.5649 86.0501 13.7123 86.5216 13.71C87.0028 13.7076 87.3822 13.5566 87.6599 13.2569C87.9375 12.9572 88.075 12.5379 88.0724 11.9989L88.051 7.62494L90.5195 7.61288ZM99.9048 11.4648C99.9059 11.6957 99.8927 11.9364 99.865 12.1868L94.2784 12.214C94.3193 12.7143 94.48 13.0985 94.7604 13.3666C95.0504 13.625 95.4023 13.7532 95.8161 13.7512C96.4321 13.7482 96.859 13.4863 97.0971 12.9654L99.7244 12.9526C99.5922 13.4825 99.3492 13.9601 98.9951 14.3853C98.6508 14.8104 98.2145 15.1446 97.6864 15.3878C97.1582 15.6309 96.567 15.7541 95.9125 15.7573C95.1234 15.7612 94.42 15.5962 93.8025 15.2624C93.1849 14.9285 92.7014 14.4497 92.3519 13.8259C92.0023 13.202 91.8255 12.4714 91.8215 11.6342C91.8174 10.7969 91.9822 10.0647 92.316 9.43748C92.6594 8.81024 93.1382 8.32671 93.7525 7.98687C94.3668 7.64703 95.0733 7.47515 95.8721 7.47125C96.6516 7.46745 97.3453 7.62767 97.9532 7.95192C98.5611 8.27616 99.035 8.74061 99.3747 9.34527C99.7242 9.94987 99.9008 10.6564 99.9048 11.4648ZM97.3754 10.8275C97.3733 10.4041 97.2273 10.0679 96.9374 9.81912C96.6474 9.57031 96.2859 9.44697 95.8529 9.44908C95.439 9.4511 95.0884 9.57312 94.8008 9.81512C94.5229 10.0571 94.3513 10.3996 94.2861 10.8426L97.3754 10.8275ZM103.644 4.92144L103.696 15.6038L101.227 15.6159L101.175 4.93349L103.644 4.92144ZM108.682 5.0845L108.427 12.0006L106.333 12.0108L106.011 5.09755L108.682 5.0845ZM107.434 15.7011C107.001 15.7032 106.644 15.5798 106.364 15.331C106.093 15.0724 105.957 14.7555 105.955 14.3802C105.953 13.9952 106.086 13.6722 106.355 13.411C106.632 13.1498 106.988 13.0181 107.421 13.016C107.844 13.014 108.192 13.1422 108.462 13.4007C108.743 13.6592 108.884 13.9809 108.886 14.3659C108.887 14.7412 108.749 15.0595 108.472 15.3207C108.203 15.5722 107.858 15.699 107.434 15.7011Z" fill="#303030"/>
<defs>
<clipPath id="clip0_950_160">
<rect width="14.4358" height="14.4358" fill="white" transform="translate(0.737213 28.174) rotate(-0.279791)"/>
</clipPath>
</defs>
</svg>
