<svg width="23" height="22" viewBox="0 0 23 22" fill="none" xmlns="http://www.w3.org/2000/svg">
<g clip-path="url(#clip0_950_138)">
<path fill-rule="evenodd" clip-rule="evenodd" d="M17.2382 9.7272C17.2247 6.95736 16.1848 4.64365 13.6014 4.04273L13.5918 2.07588L9.98289 2.0935L9.9925 4.06036C7.4061 4.68652 6.39786 7.0012 6.41143 9.78007L6.43566 14.7423L4.63561 15.6534L4.64442 17.4578L19.0801 17.3873L19.0713 15.5829L17.2624 14.6895L17.2382 9.7272ZM12.2362 20.0914C12.119 20.1191 12.0018 20.1287 11.8755 20.1293C10.874 20.1342 10.0671 19.3261 10.0532 18.3337L13.6621 18.316C13.6633 18.5687 13.6194 18.8035 13.5302 19.0204C13.2983 19.5629 12.822 19.9622 12.2362 20.0914Z" fill="#303030"/>
<circle cx="16.3117" cy="4.76934" r="3.3834" transform="rotate(-0.279791 16.3117 4.76934)" fill="#FF8500" stroke="white" stroke-width="1.35336"/>
</g>
<defs>
<clipPath id="clip0_950_138">
<rect width="21.6538" height="21.6538" fill="white" transform="translate(0.951797 0.333069) rotate(-0.279791)"/>
</clipPath>
</defs>
</svg>
