<svg width="323" height="151" viewBox="0 0 323 151" fill="none" xmlns="http://www.w3.org/2000/svg">
<rect x="0.867006" y="10.9982" width="80.165" height="36.1426" rx="6.7668" transform="rotate(-0.279791 0.867006 10.9982)" fill="#EEEEEE"/>
<path d="M14.5894 25.608L14.583 24.2944L17.2103 24.2816L17.2552 33.4897L15.8027 33.4968L15.7641 25.6023L14.5894 25.608ZM19.0472 31.561L19.0419 30.4747L23.2562 24.3657L24.9994 24.3572L25.0283 30.2813L26.203 30.2755L26.2091 31.526L25.0344 31.5317L25.0438 33.4517L23.6291 33.4586L23.6197 31.5387L19.0472 31.561ZM23.655 25.829L20.6958 30.3024L23.6767 30.2879L23.655 25.829ZM28.1826 33.5248C27.9215 33.5261 27.7021 33.4387 27.5244 33.2627C27.3467 33.0868 27.2573 32.8682 27.256 32.6072C27.2547 32.3462 27.3421 32.1268 27.518 31.9491C27.694 31.7714 27.9125 31.6819 28.1736 31.6806C28.4262 31.6794 28.6413 31.7668 28.819 31.9427C28.9967 32.1187 29.0862 32.3372 29.0875 32.5983C29.0888 32.8593 29.0014 33.0787 28.8255 33.2564C28.6495 33.4341 28.4352 33.5235 28.1826 33.5248ZM30.2722 31.5062L30.2669 30.4199L34.4812 24.3109L36.2244 24.3024L36.2533 30.2264L37.428 30.2207L37.4341 31.4712L36.2594 31.4769L36.2688 33.3969L34.8541 33.4038L34.8447 31.4838L30.2722 31.5062ZM34.88 25.7742L31.9208 30.2476L34.9017 30.233L34.88 25.7742ZM44.5344 25.386L40.3029 25.4067L40.3152 27.9203C40.4909 27.6837 40.751 27.4845 41.0954 27.3228C41.4483 27.1611 41.8227 27.0793 42.2184 27.0773C42.9258 27.0739 43.4991 27.2226 43.9385 27.5237C44.3863 27.8246 44.7039 28.2062 44.8915 28.6685C45.0874 29.1307 45.1866 29.6186 45.1891 30.1323C45.1922 30.7554 45.0728 31.3118 44.831 31.8014C44.5975 32.2825 44.2415 32.6632 43.7629 32.9434C43.2927 33.2236 42.7123 33.3654 42.0218 33.3688C41.1039 33.3733 40.366 33.1495 39.808 32.6975C39.25 32.2455 38.9144 31.645 38.8013 30.8961L40.2034 30.8892C40.2979 31.2846 40.5058 31.5993 40.8269 31.8336C41.148 32.0594 41.5486 32.1711 42.0286 32.1688C42.6264 32.1658 43.0719 31.9826 43.3648 31.6191C43.6662 31.2555 43.8154 30.7748 43.8125 30.1769C43.8095 29.5706 43.6557 29.1082 43.351 28.7897C43.0462 28.4627 42.5991 28.3007 42.0097 28.3036C41.5971 28.3056 41.2481 28.4126 40.9628 28.6245C40.6859 28.828 40.4852 29.1068 40.3606 29.4611L38.9964 29.4678L38.9705 24.15L44.5282 24.1229L44.5344 25.386ZM56.2831 27.135C56.2853 27.5813 56.1821 28.0028 55.9735 28.3996C55.7649 28.7964 55.4297 29.1223 54.9678 29.3772C54.5058 29.6236 53.9127 29.7486 53.1885 29.7522L51.597 29.7599L51.6144 33.3219L50.1744 33.329L50.1316 24.5503L53.1631 24.5355C53.8367 24.5322 54.4057 24.6473 54.87 24.8808C55.3427 25.1059 55.6937 25.4157 55.923 25.8104C56.1607 26.205 56.2807 26.6466 56.2831 27.135ZM53.1828 28.5775C53.7302 28.5748 54.138 28.4507 54.4062 28.2052C54.6745 27.9512 54.8075 27.5969 54.8053 27.1422C54.8006 26.1822 54.2551 25.7049 53.1688 25.7102L51.5773 25.7179L51.5913 28.5852L53.1828 28.5775ZM66.8897 24.4684L66.9326 33.2471L65.4926 33.2542L65.4633 27.2417L62.8148 33.2672L61.817 33.2721L59.0972 27.2728L59.1265 33.2852L57.6866 33.2923L57.6437 24.5136L59.1973 24.506L62.313 31.375L65.3487 24.476L66.8897 24.4684Z" fill="#BDBDBD"/>
<rect x="0.867006" y="10.9982" width="80.165" height="36.1426" rx="6.7668" transform="rotate(-0.279791 0.867006 10.9982)" stroke="#C7C9D9" stroke-width="0.90224"/>
<rect x="110.577" y="10.4625" width="84.165" height="36.1426" rx="6.7668" transform="rotate(-0.279791 110.577 10.4625)" fill="#EEEEEE"/>
<path d="M124.504 28.2418C124.497 26.785 124.735 25.647 125.22 24.8278C125.713 24.0001 126.561 23.5834 127.765 23.5775C128.97 23.5716 129.818 23.9801 130.31 24.803C130.811 25.6173 131.065 26.7529 131.072 28.2097C131.079 29.6834 130.837 30.8382 130.344 31.6743C129.859 32.502 129.015 32.9187 127.811 32.9246C126.607 32.9305 125.754 32.522 125.253 31.6992C124.761 30.8679 124.511 29.7155 124.504 28.2418ZM129.657 28.2166C129.654 27.5346 129.605 26.958 129.51 26.4869C129.424 26.0157 129.245 25.6334 128.974 25.34C128.703 25.0382 128.302 24.8885 127.772 24.8911C127.241 24.8937 126.842 25.0473 126.574 25.3517C126.306 25.6478 126.127 26.0318 126.036 26.5038C125.955 26.9758 125.915 27.5528 125.919 28.2349C125.922 28.9423 125.967 29.5357 126.054 30.0153C126.14 30.4949 126.319 30.8814 126.59 31.1748C126.869 31.4681 127.274 31.6135 127.805 31.6109C128.335 31.6084 128.734 31.459 129.002 31.163C129.279 30.8669 129.458 30.4787 129.54 29.9983C129.622 29.5179 129.661 28.924 129.657 28.2166ZM134.4 30.4166C134.487 30.8373 134.669 31.1564 134.948 31.374C135.227 31.5915 135.602 31.6992 136.074 31.6969C136.672 31.694 137.108 31.456 137.384 30.9831C137.66 30.5102 137.795 29.7053 137.789 28.5685C137.588 28.8558 137.303 29.0804 136.933 29.2422C136.572 29.3955 136.177 29.4732 135.747 29.4753C135.2 29.478 134.703 29.371 134.255 29.1542C133.808 28.929 133.452 28.5981 133.189 28.1615C132.934 27.7164 132.806 27.1781 132.802 26.5466C132.798 25.6203 133.064 24.8821 133.6 24.3322C134.145 23.7737 134.893 23.4922 135.844 23.4875C136.99 23.4819 137.804 23.8611 138.288 24.6251C138.78 25.3805 139.03 26.5456 139.037 28.1203C139.043 29.2066 138.954 30.0954 138.773 30.7869C138.599 31.4782 138.29 32.0018 137.846 32.3577C137.401 32.7135 136.783 32.8934 135.991 32.8973C135.09 32.9017 134.394 32.6693 133.904 32.2001C133.413 31.7309 133.136 31.1386 133.074 30.4231L134.4 30.4166ZM135.994 28.2615C136.499 28.259 136.894 28.1013 137.179 27.7883C137.472 27.4669 137.617 27.0452 137.615 26.5231C137.612 25.942 137.454 25.4923 137.141 25.1738C136.836 24.8469 136.419 24.6847 135.888 24.6873C135.358 24.6899 134.937 24.8604 134.627 25.1987C134.326 25.5286 134.176 25.963 134.179 26.5019C134.182 27.0156 134.331 27.4401 134.627 27.7755C134.932 28.1025 135.388 28.2645 135.994 28.2615ZM141.408 32.9719C141.147 32.9732 140.927 32.8858 140.75 32.7098C140.572 32.5339 140.482 32.3153 140.481 32.0543C140.48 31.7933 140.567 31.5739 140.743 31.3962C140.919 31.2185 141.138 31.129 141.399 31.1277C141.651 31.1265 141.866 31.2139 142.044 31.3898C142.222 31.5658 142.311 31.7843 142.313 32.0454C142.314 32.3064 142.227 32.5258 142.051 32.7035C141.875 32.8812 141.66 32.9706 141.408 32.9719ZM144.47 30.9106C145.275 30.2077 145.908 29.632 146.369 29.1835C146.838 28.7264 147.227 28.253 147.536 27.763C147.846 27.2731 147.999 26.7839 147.997 26.2955C147.994 25.7903 147.87 25.3951 147.625 25.11C147.387 24.8248 147.012 24.6835 146.498 24.686C146.001 24.6884 145.615 24.8503 145.339 25.1717C145.071 25.4846 144.929 25.9063 144.915 26.4369L143.526 26.4437C143.546 25.4836 143.829 24.7496 144.374 24.2416C144.927 23.7253 145.629 23.465 146.48 23.4608C147.397 23.4564 148.114 23.7055 148.631 24.2082C149.155 24.7109 149.42 25.3833 149.424 26.2254C149.427 26.8317 149.274 27.4177 148.965 27.9834C148.664 28.5407 148.301 29.0435 147.873 29.4919C147.454 29.9318 146.918 30.4439 146.264 31.0282L145.698 31.5362L149.702 31.5166L149.708 32.7166L143.569 32.7466L143.564 31.6982L144.47 30.9106ZM156.871 24.8375L152.64 24.8581L152.652 27.3717C152.828 27.1351 153.088 26.9359 153.432 26.7742C153.785 26.6125 154.16 26.5307 154.555 26.5288C155.263 26.5253 155.836 26.6741 156.275 26.9751C156.723 27.2761 157.041 27.6577 157.228 28.1199C157.424 28.5821 157.524 29.07 157.526 29.5837C157.529 30.2068 157.41 30.7632 157.168 31.2528C156.934 31.734 156.578 32.1146 156.1 32.3949C155.63 32.6751 155.049 32.8168 154.359 32.8202C153.441 32.8247 152.703 32.6009 152.145 32.1489C151.587 31.6969 151.251 31.0964 151.138 30.3475L152.54 30.3407C152.635 30.736 152.843 31.0508 153.164 31.285C153.485 31.5108 153.886 31.6225 154.366 31.6202C154.963 31.6173 155.409 31.434 155.702 31.0705C156.003 30.7069 156.152 30.2262 156.149 29.6283C156.146 29.022 155.993 28.5596 155.688 28.2411C155.383 27.9142 154.936 27.7522 154.347 27.755C153.934 27.757 153.585 27.864 153.3 28.0759C153.023 28.2794 152.822 28.5583 152.698 28.9126L151.333 28.9192L151.307 23.6015L156.865 23.5743L156.871 24.8375ZM167.795 30.9609L164.119 30.9789L163.497 32.7756L161.994 32.7829L165.096 23.9762L166.763 23.9681L169.951 32.7441L168.435 32.7515L167.795 30.9609ZM167.385 29.7882L165.938 25.7153L164.518 29.8022L167.385 29.7882ZM180.522 23.9135L180.565 32.6922L179.125 32.6993L179.095 26.6868L176.447 32.7123L175.449 32.7172L172.729 26.7179L172.759 32.7304L171.319 32.7374L171.276 23.9587L172.829 23.9511L175.945 30.8201L178.981 23.9211L180.522 23.9135Z" fill="#C7C9D9"/>
<rect x="110.577" y="10.4625" width="84.165" height="36.1426" rx="6.7668" transform="rotate(-0.279791 110.577 10.4625)" stroke="#C7C9D9" stroke-width="0.90224"/>
<g filter="url(#filter0_d_1_435)">
<rect x="223.372" y="9.46051" width="86.0672" height="37.0448" rx="7.21792" transform="rotate(-0.279791 223.372 9.46051)" fill="#FF8500"/>
<path d="M237.752 27.6888C237.745 26.232 237.984 25.094 238.468 24.2748C238.961 23.4471 239.81 23.0303 241.014 23.0245C242.218 23.0186 243.066 23.4271 243.559 24.2499C244.06 25.0643 244.314 26.1999 244.321 27.6567C244.328 29.1303 244.085 30.2852 243.592 31.1213C243.108 31.9489 242.264 32.3657 241.06 32.3715C239.855 32.3774 239.003 31.969 238.502 31.1462C238.01 30.3149 237.76 29.1624 237.752 27.6888ZM242.906 27.6636C242.903 26.9815 242.854 26.4049 242.759 25.9338C242.672 25.4627 242.493 25.0804 242.222 24.787C241.952 24.4851 241.551 24.3355 241.02 24.3381C240.49 24.3407 240.091 24.4942 239.823 24.7987C239.555 25.0947 239.375 25.4788 239.285 25.9508C239.203 26.4228 239.164 26.9998 239.167 27.6819C239.171 28.3892 239.216 28.9827 239.302 29.4623C239.389 29.9418 239.567 30.3283 239.838 30.6217C240.118 30.9151 240.523 31.0605 241.053 31.0579C241.584 31.0553 241.983 30.906 242.251 30.61C242.527 30.3139 242.707 29.9256 242.788 29.4452C242.87 28.9648 242.909 28.371 242.906 27.6636ZM247.649 29.8636C247.735 30.2842 247.918 30.6033 248.197 30.8209C248.476 31.0385 248.851 31.1461 249.322 31.1438C249.92 31.1409 250.357 30.903 250.633 30.4301C250.908 29.9572 251.043 29.1523 251.038 28.0155C250.837 28.3028 250.552 28.5273 250.182 28.6891C249.821 28.8425 249.425 28.9202 248.996 28.9223C248.448 28.925 247.951 28.8179 247.504 28.6012C247.056 28.376 246.701 28.0451 246.438 27.6085C246.183 27.1634 246.054 26.6251 246.051 25.9935C246.046 25.0672 246.312 24.3291 246.849 23.7791C247.393 23.2207 248.141 22.9391 249.093 22.9345C250.238 22.9289 251.053 23.3081 251.536 24.072C252.028 24.8275 252.278 25.9926 252.286 27.5673C252.291 28.6536 252.203 29.5424 252.021 30.2338C251.848 30.9252 251.539 31.4488 251.094 31.8047C250.65 32.1605 250.031 32.3404 249.24 32.3442C248.339 32.3486 247.643 32.1162 247.152 31.6471C246.662 31.1779 246.385 30.5856 246.323 29.8701L247.649 29.8636ZM249.243 27.7085C249.748 27.706 250.143 27.5483 250.428 27.2353C250.721 26.9139 250.866 26.4921 250.863 25.97C250.861 25.389 250.703 24.9392 250.39 24.6208C250.085 24.2938 249.667 24.1317 249.137 24.1343C248.606 24.1368 248.186 24.3073 247.876 24.6457C247.574 24.9756 247.425 25.41 247.428 25.9489C247.43 26.4626 247.58 26.8871 247.876 27.2225C248.181 27.5494 248.636 27.7114 249.243 27.7085ZM254.656 32.4188C254.395 32.4201 254.176 32.3328 253.998 32.1568C253.82 31.9808 253.731 31.7623 253.73 31.5013C253.728 31.2402 253.816 31.0208 253.992 30.8431C254.168 30.6654 254.386 30.576 254.647 30.5747C254.9 30.5734 255.115 30.6608 255.293 30.8368C255.47 31.0128 255.56 31.2313 255.561 31.4923C255.562 31.7534 255.475 31.9727 255.299 32.1504C255.123 32.3281 254.909 32.4176 254.656 32.4188ZM256.746 30.4002L256.741 29.3139L260.955 23.205L262.698 23.1965L262.727 29.1205L263.902 29.1148L263.908 30.3652L262.733 30.371L262.742 32.2909L261.328 32.2978L261.318 30.3779L256.746 30.4002ZM261.354 24.6683L258.394 29.1417L261.375 29.1271L261.354 24.6683ZM271.008 24.2801L266.777 24.3007L266.789 26.8144C266.965 26.5777 267.225 26.3785 267.569 26.2169C267.922 26.0551 268.296 25.9733 268.692 25.9714C269.399 25.9679 269.973 26.1167 270.412 26.4177C270.86 26.7187 271.178 27.1003 271.365 27.5625C271.561 28.0247 271.66 28.5127 271.663 29.0263C271.666 29.6495 271.546 30.2058 271.305 30.6954C271.071 31.1766 270.715 31.5573 270.237 31.8375C269.766 32.1177 269.186 32.2595 268.495 32.2628C267.578 32.2673 266.84 32.0436 266.282 31.5915C265.724 31.1395 265.388 30.5391 265.275 29.7902L266.677 29.7833C266.772 30.1786 266.979 30.4934 267.301 30.7276C267.622 30.9534 268.022 31.0652 268.502 31.0628C269.1 31.0599 269.546 30.8767 269.838 30.5131C270.14 30.1496 270.289 29.6688 270.286 29.0709C270.283 28.4647 270.129 28.0022 269.825 27.6837C269.52 27.3568 269.073 27.1948 268.483 27.1977C268.071 27.1997 267.722 27.3066 267.436 27.5186C267.16 27.722 266.959 28.0009 266.834 28.3552L265.47 28.3618L265.444 23.0441L271.002 23.017L271.008 24.2801ZM281.932 30.4035L278.256 30.4215L277.633 32.2182L276.13 32.2256L279.232 23.4189L280.9 23.4107L284.088 32.1867L282.572 32.1941L281.932 30.4035ZM281.522 29.2308L280.075 25.1579L278.655 29.2448L281.522 29.2308ZM294.659 23.3562L294.701 32.1349L293.261 32.1419L293.232 26.1294L290.584 32.155L289.586 32.1598L286.866 26.1605L286.895 32.173L285.455 32.18L285.413 23.4013L286.966 23.3937L290.082 30.2627L293.118 23.3637L294.659 23.3562Z" fill="white"/>
</g>
<rect x="1.11673" y="62.314" width="84.165" height="36.1426" rx="6.7668" transform="rotate(-0.279791 1.11673 62.314)" fill="white"/>
<path d="M15.0441 80.0933C15.037 78.6365 15.2756 77.4985 15.76 76.6793C16.2528 75.8517 17.1013 75.4349 18.3055 75.429C19.5097 75.4231 20.358 75.8316 20.8504 76.6545C21.3512 77.4689 21.6052 78.6045 21.6123 80.0613C21.6195 81.5349 21.3767 82.6898 20.884 83.5259C20.3996 84.3535 19.5553 84.7702 18.3511 84.7761C17.147 84.782 16.2944 84.3735 15.7936 83.5507C15.3011 82.7194 15.0513 81.567 15.0441 80.0933ZM20.1976 80.0682C20.1943 79.3861 20.1451 78.8095 20.0502 78.3384C19.9637 77.8672 19.785 77.4849 19.5141 77.1915C19.2431 76.8897 18.8424 76.7401 18.3119 76.7427C17.7814 76.7453 17.3821 76.8988 17.1142 77.2033C16.8461 77.4993 16.667 77.8833 16.5766 78.3553C16.4947 78.8273 16.4554 79.4044 16.4588 80.0864C16.4622 80.7938 16.5072 81.3872 16.5938 81.8668C16.6803 82.3464 16.8591 82.7329 17.13 83.0263C17.4093 83.3197 17.8142 83.4651 18.3447 83.4625C18.8752 83.4599 19.2745 83.3106 19.5425 83.0145C19.819 82.7184 19.9981 82.3302 20.08 81.8498C20.1619 81.3694 20.2011 80.7755 20.1976 80.0682ZM24.6891 79.9578C23.8112 79.5242 23.37 78.8359 23.3654 77.8927C23.3632 77.438 23.4748 77.0206 23.7003 76.6406C23.9258 76.2605 24.2654 75.9599 24.7191 75.7388C25.1727 75.5092 25.7279 75.3928 26.3847 75.3896C27.0331 75.3864 27.5852 75.4974 28.0411 75.7225C28.5053 75.9392 28.852 76.2365 29.0812 76.6143C29.3104 76.9921 29.4261 77.4084 29.4284 77.8631C29.4307 78.3347 29.3106 78.7521 29.0682 79.1154C28.8341 79.4702 28.5197 79.7454 28.1248 79.9411C28.6057 80.1155 28.986 80.4042 29.2659 80.8071C29.5457 81.2015 29.6869 81.6681 29.6896 82.2071C29.6923 82.7544 29.5557 83.2393 29.2798 83.6617C29.004 84.0841 28.6182 84.4102 28.1225 84.64C27.6268 84.8698 27.0632 84.9862 26.4316 84.9893C25.8 84.9924 25.2353 84.8814 24.7374 84.6565C24.2478 84.4315 23.8631 84.1092 23.5832 83.6895C23.3032 83.2698 23.1619 82.7863 23.1592 82.239C23.1566 81.6916 23.2932 81.2194 23.5692 80.8222C23.8451 80.4251 24.2184 80.137 24.6891 79.9578ZM28.0524 78.0467C28.0501 77.5751 27.901 77.2137 27.605 76.9626C27.3091 76.7114 26.9043 76.587 26.3906 76.5895C25.8853 76.592 25.486 76.7203 25.1925 76.9743C24.899 77.2284 24.7534 77.5954 24.7557 78.0754C24.7578 78.4964 24.9111 78.841 25.2155 79.1089C25.5284 79.3685 25.9248 79.4971 26.4048 79.4947C26.8848 79.4924 27.2799 79.3557 27.5901 79.0847C27.9004 78.8137 28.0545 78.4677 28.0524 78.0467ZM26.4101 80.581C25.8543 80.5837 25.4003 80.7249 25.0479 81.0045C24.704 81.2756 24.5333 81.6681 24.5358 82.1817C24.5381 82.6617 24.7085 83.0525 25.0468 83.354C25.3851 83.647 25.8447 83.7922 26.4257 83.7893C26.9984 83.7865 27.4481 83.6328 27.7751 83.328C28.1104 83.0232 28.2769 82.635 28.2746 82.1635C28.2722 81.6582 28.0976 81.2675 27.751 80.9913C27.4128 80.715 26.9659 80.5783 26.4101 80.581ZM31.9848 84.8232C31.7238 84.8245 31.5044 84.7372 31.3267 84.5612C31.149 84.3852 31.0595 84.1667 31.0582 83.9057C31.057 83.6446 31.1443 83.4252 31.3203 83.2475C31.4962 83.0698 31.7148 82.9803 31.9758 82.9791C32.2284 82.9778 32.4436 83.0652 32.6213 83.2412C32.799 83.4172 32.8885 83.6357 32.8898 83.8967C32.891 84.1578 32.8037 84.3771 32.6277 84.5548C32.4517 84.7325 32.2374 84.822 31.9848 84.8232ZM40.1584 76.7244L35.927 76.7451L35.9392 79.2587C36.1149 79.022 36.375 78.8229 36.7195 78.6612C37.0724 78.4995 37.4467 78.4176 37.8425 78.4157C38.5498 78.4123 39.1232 78.561 39.5625 78.862C40.0103 79.163 40.328 79.5446 40.5155 80.0069C40.7114 80.4691 40.8107 80.957 40.8132 81.4707C40.8162 82.0938 40.6968 82.6502 40.455 83.1398C40.2216 83.6209 39.8655 84.0016 39.3869 84.2818C38.9167 84.562 38.3363 84.7038 37.6458 84.7072C36.728 84.7116 35.99 84.4879 35.432 84.0359C34.874 83.5839 34.5385 82.9834 34.4253 82.2345L35.8274 82.2276C35.922 82.623 36.1298 82.9377 36.451 83.172C36.7721 83.3978 37.1726 83.5095 37.6526 83.5071C38.2505 83.5042 38.6959 83.321 38.9889 82.9575C39.2902 82.5939 39.4395 82.1132 39.4365 81.5153C39.4336 80.909 39.2797 80.4466 38.975 80.1281C38.6703 79.8011 38.2232 79.6391 37.6337 79.642C37.2211 79.644 36.8722 79.751 36.5869 79.9629C36.31 80.1663 36.1092 80.4452 35.9846 80.7995L34.6205 80.8062L34.5945 75.4884L40.1522 75.4613L40.1584 76.7244ZM48.2256 76.685L43.9941 76.7057L44.0064 79.2193C44.1821 78.9826 44.4422 78.7835 44.7867 78.6218C45.1396 78.4601 45.5139 78.3782 45.9097 78.3763C46.617 78.3729 47.1904 78.5216 47.6297 78.8226C48.0775 79.1236 48.3952 79.5052 48.5827 79.9675C48.7786 80.4297 48.8778 80.9176 48.8804 81.4313C48.8834 82.0544 48.764 82.6108 48.5222 83.1004C48.2888 83.5815 47.9327 83.9622 47.4541 84.2424C46.9839 84.5226 46.4035 84.6644 45.713 84.6678C44.7952 84.6722 44.0572 84.4485 43.4992 83.9965C42.9412 83.5445 42.6057 82.944 42.4925 82.1951L43.8946 82.1882C43.9892 82.5836 44.197 82.8983 44.5182 83.1326C44.8393 83.3584 45.2398 83.4701 45.7198 83.4677C46.3177 83.4648 46.7631 83.2816 47.056 82.9181C47.3574 82.5545 47.5067 82.0738 47.5037 81.4759C47.5008 80.8696 47.3469 80.4072 47.0422 80.0887C46.7375 79.7617 46.2904 79.5997 45.7009 79.6026C45.2883 79.6046 44.9393 79.7116 44.6541 79.9235C44.3772 80.1269 44.1764 80.4058 44.0518 80.7601L42.6877 80.7668L42.6617 75.449L48.2194 75.4219L48.2256 76.685ZM59.9743 78.4339C59.9765 78.8802 59.8733 79.3018 59.6647 79.6986C59.4561 80.0954 59.1209 80.4213 58.659 80.6761C58.197 80.9226 57.604 81.0476 56.8798 81.0512L55.2882 81.0589L55.3056 84.6209L53.8657 84.628L53.8228 75.8493L56.8543 75.8345C57.528 75.8312 58.0969 75.9463 58.5612 76.1798C59.0339 76.4049 59.3849 76.7147 59.6142 77.1094C59.8519 77.504 59.972 77.9455 59.9743 78.4339ZM56.874 79.8764C57.4214 79.8738 57.8292 79.7497 58.0975 79.5042C58.3657 79.2502 58.4987 78.8959 58.4965 78.4412C58.4918 77.4812 57.9463 77.0039 56.86 77.0092L55.2685 77.0169L55.2825 79.8842L56.874 79.8764ZM70.581 75.7674L70.6238 84.5461L69.1839 84.5532L69.1545 78.5407L66.5061 84.5662L65.5082 84.5711L62.7884 78.5718L62.8178 84.5842L61.3778 84.5913L61.3349 75.8126L62.8886 75.805L66.0042 82.674L69.04 75.775L70.581 75.7674Z" fill="#FF8500"/>
<rect x="1.11673" y="62.314" width="84.165" height="36.1426" rx="6.7668" transform="rotate(-0.279791 1.11673 62.314)" stroke="#FF8500" stroke-width="0.90224"/>
<rect x="114.365" y="61.761" width="83.165" height="36.1426" rx="6.7668" transform="rotate(-0.279791 114.365 61.761)" fill="white"/>
<path d="M128.293 79.5403C128.286 78.0835 128.524 76.9455 129.009 76.1263C129.501 75.2986 130.35 74.8819 131.554 74.876C132.758 74.8701 133.607 75.2786 134.099 76.1014C134.6 76.9158 134.854 78.0514 134.861 79.5082C134.868 80.9819 134.625 82.1367 134.133 82.9728C133.648 83.8004 132.804 84.2172 131.6 84.2231C130.396 84.229 129.543 83.8205 129.042 82.9977C128.55 82.1664 128.3 81.0139 128.293 79.5403ZM133.446 79.5151C133.443 78.8331 133.394 78.2565 133.299 77.7853C133.212 77.3142 133.034 76.9319 132.763 76.6385C132.492 76.3367 132.091 76.187 131.56 76.1896C131.03 76.1922 130.631 76.3458 130.363 76.6502C130.095 76.9463 129.916 77.3303 129.825 77.8023C129.743 78.2743 129.704 78.8513 129.707 79.5334C129.711 80.2407 129.756 80.8342 129.842 81.3138C129.929 81.7934 130.108 82.1799 130.379 82.4733C130.658 82.7666 131.063 82.912 131.593 82.9094C132.124 82.9068 132.523 82.7575 132.791 82.4615C133.068 82.1654 133.247 81.7772 133.329 81.2968C133.41 80.8164 133.45 80.2225 133.446 79.5151ZM142.204 76.0998L138.732 84.2135L137.279 84.2206L140.79 76.2582L136.116 76.2811L136.11 75.0558L142.198 75.0261L142.204 76.0998ZM144.247 84.275C143.986 84.2763 143.766 84.1889 143.588 84.013C143.411 83.837 143.321 83.6185 143.32 83.3574C143.319 83.0964 143.406 82.877 143.582 82.6993C143.758 82.5216 143.977 82.4321 144.238 82.4308C144.49 82.4296 144.705 82.517 144.883 82.693C145.061 82.8689 145.15 83.0874 145.152 83.3485C145.153 83.6095 145.065 83.8289 144.889 84.0066C144.714 84.1843 144.499 84.2738 144.247 84.275ZM146.336 82.2564L146.331 81.1701L150.545 75.0611L152.288 75.0526L152.317 80.9767L153.492 80.9709L153.498 82.2214L152.323 82.2272L152.333 84.1471L150.918 84.154L150.909 82.2341L146.336 82.2564ZM150.944 76.5244L147.985 80.9978L150.966 80.9833L150.944 76.5244ZM160.598 76.1363L156.367 76.1569L156.379 78.6705C156.555 78.4339 156.815 78.2347 157.159 78.073C157.512 77.9113 157.887 77.8295 158.282 77.8276C158.99 77.8241 159.563 77.9729 160.003 78.2739C160.45 78.5749 160.768 78.9565 160.955 79.4187C161.151 79.8809 161.251 80.3688 161.253 80.8825C161.256 81.5056 161.137 82.062 160.895 82.5516C160.662 83.0327 160.306 83.4134 159.827 83.6937C159.357 83.9739 158.776 84.1156 158.086 84.119C157.168 84.1235 156.43 83.8997 155.872 83.4477C155.314 82.9957 154.978 82.3952 154.865 81.6463L156.267 81.6395C156.362 82.0348 156.57 82.3496 156.891 82.5838C157.212 82.8096 157.613 82.9213 158.093 82.919C158.69 82.9161 159.136 82.7328 159.429 82.3693C159.73 82.0057 159.879 81.525 159.877 80.9271C159.874 80.3208 159.72 79.8584 159.415 79.5399C159.11 79.213 158.663 79.0509 158.074 79.0538C157.661 79.0558 157.312 79.1628 157.027 79.3747C156.75 79.5782 156.549 79.8571 156.425 80.2113L155.06 80.218L155.034 74.9003L160.592 74.8731L160.598 76.1363ZM172.347 77.8852C172.349 78.3315 172.246 78.753 172.038 79.1498C171.829 79.5467 171.494 79.8725 171.032 80.1274C170.57 80.3739 169.977 80.4989 169.253 80.5024L167.661 80.5102L167.678 84.0722L166.238 84.0792L166.196 75.3005L169.227 75.2857C169.901 75.2824 170.47 75.3975 170.934 75.631C171.407 75.8561 171.758 76.166 171.987 76.5606C172.225 76.9553 172.345 77.3968 172.347 77.8852ZM169.247 79.3277C169.794 79.325 170.202 79.2009 170.47 78.9554C170.738 78.7015 170.871 78.3471 170.869 77.8924C170.865 76.9324 170.319 76.4551 169.233 76.4604L167.641 76.4682L167.655 79.3355L169.247 79.3277ZM182.954 75.2187L182.997 83.9974L181.557 84.0044L181.527 77.9919L178.879 84.0175L177.881 84.0223L175.161 78.023L175.191 84.0355L173.751 84.0425L173.708 75.2638L175.261 75.2562L178.377 82.1252L181.413 75.2262L182.954 75.2187Z" fill="#FF8500"/>
<rect x="114.365" y="61.761" width="83.165" height="36.1426" rx="6.7668" transform="rotate(-0.279791 114.365 61.761)" stroke="#FF8500" stroke-width="0.90224"/>
<rect x="227.614" y="61.2079" width="82.165" height="36.1426" rx="6.7668" transform="rotate(-0.279791 227.614 61.2079)" fill="#EEEEEE"/>
<path d="M241.336 75.8178L241.33 74.5041L243.957 74.4913L244.002 83.6995L242.55 83.7066L242.511 75.8121L241.336 75.8178ZM245.794 81.7707L245.789 80.6844L250.003 74.5755L251.746 74.567L251.775 80.491L252.95 80.4853L252.956 81.7358L251.781 81.7415L251.791 83.6614L250.376 83.6683L250.367 81.7484L245.794 81.7707ZM250.402 76.0388L247.443 80.5122L250.424 80.4976L250.402 76.0388ZM254.929 83.7345C254.668 83.7358 254.449 83.6485 254.271 83.4725C254.094 83.2965 254.004 83.078 254.003 82.817C254.002 82.5559 254.089 82.3365 254.265 82.1588C254.441 81.9811 254.659 81.8916 254.92 81.8904C255.173 81.8891 255.388 81.9765 255.566 82.1525C255.744 82.3285 255.833 82.547 255.834 82.808C255.836 83.0691 255.748 83.2884 255.572 83.4661C255.396 83.6438 255.182 83.7333 254.929 83.7345ZM257.019 81.7159L257.014 80.6296L261.228 74.5207L262.971 74.5121L263 80.4362L264.175 80.4304L264.181 81.6809L263.006 81.6867L263.016 83.6066L261.601 83.6135L261.592 81.6936L257.019 81.7159ZM261.627 75.984L258.668 80.4573L261.649 80.4428L261.627 75.984ZM265.36 78.871C265.353 77.4142 265.592 76.2762 266.076 75.457C266.569 74.6293 267.418 74.2125 268.622 74.2067C269.826 74.2008 270.674 74.6093 271.167 75.4321C271.668 76.2465 271.922 77.3821 271.929 78.8389C271.936 80.3125 271.693 81.4674 271.2 82.3035C270.716 83.1311 269.872 83.5479 268.668 83.5538C267.463 83.5596 266.611 83.1512 266.11 82.3284C265.617 81.4971 265.368 80.3446 265.36 78.871ZM270.514 78.8458C270.511 78.1637 270.462 77.5871 270.367 77.116C270.28 76.6449 270.101 76.2626 269.83 75.9692C269.56 75.6673 269.159 75.5177 268.628 75.5203C268.098 75.5229 267.699 75.6764 267.431 75.9809C267.162 76.2769 266.983 76.661 266.893 77.133C266.811 77.605 266.772 78.182 266.775 78.8641C266.779 79.5714 266.824 80.1649 266.91 80.6445C266.997 81.124 267.175 81.5105 267.446 81.8039C267.726 82.0973 268.131 82.2427 268.661 82.2401C269.192 82.2375 269.591 82.0882 269.859 81.7922C270.135 81.4961 270.314 81.1078 270.396 80.6274C270.478 80.147 270.517 79.5532 270.514 78.8458ZM282.23 81.7191L278.554 81.7371L277.931 83.5338L276.428 83.5411L279.53 74.7344L281.198 74.7263L284.386 83.5023L282.87 83.5097L282.23 81.7191ZM281.82 80.5464L280.373 76.4735L278.952 80.5604L281.82 80.5464ZM294.956 74.6717L294.999 83.4504L293.559 83.4575L293.53 77.445L290.882 83.4705L289.884 83.4754L287.164 77.4761L287.193 83.4886L285.753 83.4956L285.71 74.7169L287.264 74.7093L290.38 81.5783L293.415 74.6793L294.956 74.6717Z" fill="#C7C9D9"/>
<rect x="227.614" y="61.2079" width="82.165" height="36.1426" rx="6.7668" transform="rotate(-0.279791 227.614 61.2079)" stroke="#C7C9D9" stroke-width="0.90224"/>
<rect x="1.3673" y="113.63" width="82.165" height="36.1426" rx="6.7668" transform="rotate(-0.279791 1.3673 113.63)" fill="#EEEEEE"/>
<path d="M15.0897 128.24L15.0833 126.926L17.7106 126.913L17.7555 136.121L16.303 136.128L16.2644 128.234L15.0897 128.24ZM19.7106 131.388C19.7035 129.931 19.9422 128.793 20.4266 127.974C20.9194 127.146 21.7679 126.729 22.9721 126.723C24.1762 126.717 25.0245 127.126 25.517 127.949C26.0178 128.763 26.2718 129.899 26.2789 131.355C26.2861 132.829 26.0433 133.984 25.5505 134.82C25.0661 135.648 24.2219 136.064 23.0177 136.07C21.8135 136.076 20.961 135.668 20.4601 134.845C19.9677 134.014 19.7178 132.861 19.7106 131.388ZM24.8642 131.362C24.8608 130.68 24.8117 130.104 24.7168 129.633C24.6303 129.161 24.4516 128.779 24.1807 128.486C23.9097 128.184 23.509 128.034 22.9785 128.037C22.448 128.039 22.0487 128.193 21.7807 128.497C21.5127 128.793 21.3335 129.178 21.2432 129.65C21.1613 130.122 21.122 130.699 21.1253 131.381C21.1288 132.088 21.1738 132.681 21.2603 133.161C21.3469 133.641 21.5256 134.027 21.7965 134.32C22.0759 134.614 22.4808 134.759 23.0113 134.757C23.5418 134.754 23.9411 134.605 24.2091 134.309C24.4855 134.013 24.6647 133.624 24.7466 133.144C24.8284 132.664 24.8676 132.07 24.8642 131.362ZM28.5965 136.157C28.3355 136.158 28.1161 136.071 27.9384 135.895C27.7607 135.719 27.6712 135.5 27.6699 135.239C27.6687 134.978 27.756 134.759 27.932 134.581C28.1079 134.403 28.3265 134.314 28.5875 134.313C28.8401 134.311 29.0553 134.399 29.233 134.575C29.4107 134.751 29.5002 134.969 29.5015 135.23C29.5027 135.491 29.4154 135.711 29.2394 135.888C29.0634 136.066 28.8491 136.156 28.5965 136.157ZM30.6861 134.138L30.6808 133.052L34.8952 126.943L36.6383 126.934L36.6672 132.858L37.8419 132.853L37.848 134.103L36.6733 134.109L36.6827 136.029L35.268 136.036L35.2586 134.116L30.6861 134.138ZM35.2939 128.406L32.3347 132.88L35.3157 132.865L35.2939 128.406ZM44.9483 128.018L40.7169 128.039L40.7291 130.552C40.9048 130.316 41.1649 130.116 41.5094 129.955C41.8623 129.793 42.2366 129.711 42.6324 129.709C43.3397 129.706 43.9131 129.855 44.3524 130.156C44.8002 130.457 45.1179 130.838 45.3054 131.3C45.5013 131.763 45.6006 132.251 45.6031 132.764C45.6061 133.387 45.4867 133.944 45.2449 134.433C45.0115 134.914 44.6554 135.295 44.1768 135.575C43.7066 135.856 43.1262 135.997 42.4357 136.001C41.5179 136.005 40.7799 135.781 40.2219 135.329C39.664 134.877 39.3284 134.277 39.2153 133.528L40.6173 133.521C40.7119 133.917 40.9197 134.231 41.2409 134.466C41.562 134.691 41.9625 134.803 42.4425 134.801C43.0404 134.798 43.4858 134.615 43.7788 134.251C44.0801 133.887 44.2294 133.407 44.2265 132.809C44.2235 132.203 44.0697 131.74 43.7649 131.422C43.4602 131.095 43.0131 130.933 42.4236 130.936C42.011 130.938 41.6621 131.045 41.3768 131.256C41.0999 131.46 40.8991 131.739 40.7746 132.093L39.4104 132.1L39.3844 126.782L44.9422 126.755L44.9483 128.018ZM55.8721 134.141L52.1964 134.159L51.5736 135.956L50.0705 135.963L53.1728 127.157L54.8401 127.149L58.0282 135.925L56.5124 135.932L55.8721 134.141ZM55.4622 132.969L54.0149 128.896L52.5949 132.983L55.4622 132.969ZM68.5989 127.094L68.6417 135.873L67.2018 135.88L67.1724 129.867L64.524 135.893L63.5261 135.898L60.8063 129.898L60.8357 135.911L59.3957 135.918L59.3528 127.139L60.9065 127.132L64.0221 134.001L67.0579 127.102L68.5989 127.094Z" fill="#C7C9D9"/>
<rect x="1.3673" y="113.63" width="82.165" height="36.1426" rx="6.7668" transform="rotate(-0.279791 1.3673 113.63)" stroke="#C7C9D9" stroke-width="0.90224"/>
<rect x="112.846" y="113.085" width="84.165" height="36.1426" rx="6.7668" transform="rotate(-0.279791 112.846 113.085)" fill="white"/>
<path d="M126.774 130.865C126.767 129.408 127.005 128.27 127.49 127.451C127.982 126.623 128.831 126.206 130.035 126.2C131.239 126.195 132.088 126.603 132.58 127.426C133.081 128.24 133.335 129.376 133.342 130.833C133.349 132.306 133.106 133.461 132.614 134.297C132.129 135.125 131.285 135.542 130.081 135.547C128.877 135.553 128.024 135.145 127.523 134.322C127.031 133.491 126.781 132.338 126.774 130.865ZM131.927 130.84C131.924 130.157 131.875 129.581 131.78 129.11C131.693 128.639 131.515 128.256 131.244 127.963C130.973 127.661 130.572 127.511 130.042 127.514C129.511 127.517 129.112 127.67 128.844 127.975C128.576 128.271 128.397 128.655 128.306 129.127C128.224 129.599 128.185 130.176 128.188 130.858C128.192 131.565 128.237 132.159 128.323 132.638C128.41 133.118 128.589 133.504 128.86 133.798C129.139 134.091 129.544 134.236 130.074 134.234C130.605 134.231 131.004 134.082 131.272 133.786C131.549 133.49 131.728 133.102 131.81 132.621C131.892 132.141 131.931 131.547 131.927 130.84ZM136.419 130.729C135.541 130.296 135.1 129.607 135.095 128.664C135.093 128.209 135.204 127.792 135.43 127.412C135.655 127.032 135.995 126.731 136.449 126.51C136.902 126.281 137.458 126.164 138.114 126.161C138.763 126.158 139.315 126.269 139.771 126.494C140.235 126.711 140.582 127.008 140.811 127.386C141.04 127.763 141.156 128.18 141.158 128.634C141.16 129.106 141.04 129.523 140.798 129.887C140.564 130.242 140.249 130.517 139.854 130.712C140.335 130.887 140.716 131.176 140.996 131.578C141.275 131.973 141.417 132.44 141.419 132.978C141.422 133.526 141.285 134.011 141.009 134.433C140.734 134.855 140.348 135.182 139.852 135.411C139.356 135.641 138.793 135.758 138.161 135.761C137.53 135.764 136.965 135.653 136.467 135.428C135.977 135.203 135.593 134.881 135.313 134.461C135.033 134.041 134.892 133.558 134.889 133.01C134.886 132.463 135.023 131.991 135.299 131.594C135.575 131.196 135.948 130.908 136.419 130.729ZM139.782 128.818C139.78 128.346 139.631 127.985 139.335 127.734C139.039 127.483 138.634 127.358 138.12 127.361C137.615 127.363 137.216 127.492 136.922 127.746C136.629 128 136.483 128.367 136.485 128.847C136.487 129.268 136.641 129.612 136.945 129.88C137.258 130.14 137.654 130.268 138.134 130.266C138.614 130.264 139.01 130.127 139.32 129.856C139.63 129.585 139.784 129.239 139.782 128.818ZM138.14 131.352C137.584 131.355 137.13 131.496 136.778 131.776C136.434 132.047 136.263 132.439 136.265 132.953C136.268 133.433 136.438 133.824 136.776 134.125C137.115 134.418 137.574 134.564 138.155 134.561C138.728 134.558 139.178 134.404 139.505 134.099C139.84 133.795 140.007 133.406 140.004 132.935C140.002 132.43 139.827 132.039 139.481 131.763C139.142 131.486 138.695 131.35 138.14 131.352ZM143.714 135.595C143.453 135.596 143.234 135.509 143.056 135.333C142.879 135.157 142.789 134.938 142.788 134.677C142.787 134.416 142.874 134.197 143.05 134.019C143.226 133.841 143.444 133.752 143.705 133.75C143.958 133.749 144.173 133.837 144.351 134.013C144.529 134.189 144.618 134.407 144.619 134.668C144.621 134.929 144.533 135.148 144.357 135.326C144.181 135.504 143.967 135.593 143.714 135.595ZM145.804 133.576L145.799 132.49L150.013 126.381L151.756 126.372L151.785 132.296L152.96 132.291L152.966 133.541L151.791 133.547L151.801 135.467L150.386 135.474L150.377 133.554L145.804 133.576ZM150.412 127.844L147.453 132.317L150.434 132.303L150.412 127.844ZM154.145 130.731C154.138 129.274 154.377 128.136 154.861 127.317C155.354 126.489 156.203 126.073 157.407 126.067C158.611 126.061 159.459 126.469 159.952 127.292C160.453 128.107 160.707 129.242 160.714 130.699C160.721 132.173 160.478 133.327 159.985 134.164C159.501 134.991 158.657 135.408 157.453 135.414C156.248 135.42 155.396 135.011 154.895 134.188C154.402 133.357 154.153 132.205 154.145 130.731ZM159.299 130.706C159.296 130.024 159.247 129.447 159.152 128.976C159.065 128.505 158.886 128.123 158.615 127.829C158.345 127.527 157.944 127.378 157.413 127.38C156.883 127.383 156.484 127.536 156.216 127.841C155.948 128.137 155.768 128.521 155.678 128.993C155.596 129.465 155.557 130.042 155.56 130.724C155.564 131.431 155.609 132.025 155.695 132.505C155.782 132.984 155.96 133.371 156.231 133.664C156.511 133.957 156.916 134.103 157.446 134.1C157.977 134.098 158.376 133.948 158.644 133.652C158.92 133.356 159.1 132.968 159.181 132.487C159.263 132.007 159.302 131.413 159.299 130.706ZM171.84 129.205C171.842 129.651 171.739 130.073 171.53 130.469C171.321 130.866 170.986 131.192 170.524 131.447C170.062 131.693 169.469 131.818 168.745 131.822L167.154 131.83L167.171 135.392L165.731 135.399L165.688 126.62L168.72 126.605C169.393 126.602 169.962 126.717 170.427 126.951C170.899 127.176 171.25 127.485 171.48 127.88C171.717 128.275 171.837 128.716 171.84 129.205ZM168.739 130.647C169.287 130.644 169.695 130.52 169.963 130.275C170.231 130.021 170.364 129.667 170.362 129.212C170.357 128.252 169.812 127.775 168.725 127.78L167.134 127.788L167.148 130.655L168.739 130.647ZM182.446 126.538L182.489 135.317L181.049 135.324L181.02 129.311L178.371 135.337L177.374 135.342L174.654 129.342L174.683 135.355L173.243 135.362L173.2 126.583L174.754 126.576L177.87 133.445L180.905 126.546L182.446 126.538Z" fill="#FF8500"/>
<rect x="112.846" y="113.085" width="84.165" height="36.1426" rx="6.7668" transform="rotate(-0.279791 112.846 113.085)" stroke="#FF8500" stroke-width="0.90224"/>
<rect x="226.095" y="112.532" width="84.165" height="36.1426" rx="6.7668" transform="rotate(-0.279791 226.095 112.532)" fill="white"/>
<path d="M240.022 130.312C240.015 128.855 240.254 127.717 240.738 126.898C241.231 126.07 242.08 125.653 243.284 125.647C244.488 125.641 245.336 126.05 245.829 126.873C246.329 127.687 246.583 128.823 246.591 130.28C246.598 131.753 246.355 132.908 245.862 133.744C245.378 134.572 244.534 134.989 243.329 134.994C242.125 135 241.273 134.592 240.772 133.769C240.279 132.938 240.029 131.785 240.022 130.312ZM245.176 130.287C245.172 129.604 245.123 129.028 245.028 128.557C244.942 128.086 244.763 127.703 244.492 127.41C244.221 127.108 243.821 126.958 243.29 126.961C242.76 126.964 242.36 127.117 242.092 127.422C241.824 127.718 241.645 128.102 241.555 128.574C241.473 129.046 241.434 129.623 241.437 130.305C241.44 131.012 241.485 131.606 241.572 132.085C241.659 132.565 241.837 132.951 242.108 133.245C242.388 133.538 242.792 133.683 243.323 133.681C243.853 133.678 244.253 133.529 244.521 133.233C244.797 132.937 244.976 132.549 245.058 132.068C245.14 131.588 245.179 130.994 245.176 130.287ZM253.933 126.871L250.461 134.985L249.009 134.992L252.519 127.03L247.846 127.052L247.84 125.827L253.928 125.797L253.933 126.871ZM255.976 135.046C255.715 135.048 255.496 134.96 255.318 134.784C255.14 134.608 255.051 134.39 255.05 134.129C255.048 133.868 255.136 133.648 255.312 133.471C255.488 133.293 255.706 133.204 255.967 133.202C256.22 133.201 256.435 133.288 256.613 133.464C256.79 133.64 256.88 133.859 256.881 134.12C256.882 134.381 256.795 134.6 256.619 134.778C256.443 134.956 256.229 135.045 255.976 135.046ZM258.193 128.012C258.24 127.229 258.536 126.617 259.081 126.177C259.634 125.736 260.341 125.514 261.2 125.509C261.789 125.506 262.299 125.609 262.73 125.818C263.16 126.026 263.486 126.311 263.706 126.672C263.927 127.033 264.039 127.441 264.041 127.895C264.043 128.418 263.907 128.865 263.63 129.236C263.354 129.608 263.023 129.858 262.636 129.987L262.636 130.037C263.134 130.186 263.523 130.462 263.803 130.865C264.082 131.259 264.224 131.768 264.227 132.391C264.229 132.888 264.118 133.331 263.892 133.719C263.667 134.108 263.332 134.417 262.886 134.646C262.441 134.867 261.907 134.98 261.284 134.983C260.374 134.987 259.624 134.759 259.032 134.299C258.449 133.83 258.134 133.158 258.087 132.282L259.477 132.276C259.513 132.722 259.687 133.087 260 133.372C260.313 133.648 260.735 133.785 261.265 133.783C261.779 133.78 262.174 133.639 262.451 133.36C262.727 133.072 262.864 132.705 262.862 132.259C262.859 131.67 262.668 131.254 262.288 131.011C261.916 130.761 261.343 130.637 260.568 130.641L260.239 130.642L260.234 129.455L260.575 129.453C261.257 129.442 261.774 129.325 262.127 129.105C262.488 128.884 262.667 128.538 262.665 128.066C262.663 127.662 262.531 127.343 262.268 127.108C262.006 126.865 261.635 126.745 261.155 126.747C260.684 126.75 260.318 126.874 260.058 127.119C259.798 127.356 259.644 127.652 259.595 128.006L258.193 128.012ZM271.65 126.911L267.418 126.932L267.43 129.445C267.606 129.209 267.866 129.009 268.211 128.848C268.564 128.686 268.938 128.604 269.334 128.602C270.041 128.599 270.614 128.748 271.054 129.049C271.501 129.35 271.819 129.731 272.007 130.193C272.203 130.656 272.302 131.144 272.304 131.657C272.307 132.28 272.188 132.837 271.946 133.326C271.713 133.807 271.357 134.188 270.878 134.468C270.408 134.749 269.828 134.89 269.137 134.894C268.219 134.898 267.481 134.674 266.923 134.222C266.365 133.77 266.03 133.17 265.917 132.421L267.319 132.414C267.413 132.809 267.621 133.124 267.942 133.358C268.263 133.584 268.664 133.696 269.144 133.694C269.742 133.691 270.187 133.508 270.48 133.144C270.781 132.78 270.931 132.3 270.928 131.702C270.925 131.096 270.771 130.633 270.466 130.315C270.161 129.988 269.714 129.826 269.125 129.829C268.712 129.831 268.363 129.937 268.078 130.149C267.801 130.353 267.6 130.632 267.476 130.986L266.112 130.993L266.086 125.675L271.643 125.648L271.65 126.911ZM282.573 133.034L278.898 133.052L278.275 134.849L276.772 134.856L279.874 126.05L281.541 126.042L284.729 134.818L283.214 134.825L282.573 133.034ZM282.163 131.862L280.716 127.789L279.296 131.876L282.163 131.862ZM295.3 125.987L295.343 134.766L293.903 134.773L293.874 128.76L291.225 134.786L290.227 134.791L287.508 128.791L287.537 134.804L286.097 134.811L286.054 126.032L287.608 126.025L290.723 132.894L293.759 125.995L295.3 125.987Z" fill="#FF8500"/>
<rect x="226.095" y="112.532" width="84.165" height="36.1426" rx="6.7668" transform="rotate(-0.279791 226.095 112.532)" stroke="#FF8500" stroke-width="0.90224"/>
<defs>
<filter id="filter0_d_1_435" x="210.74" y="0.916949" width="112.15" height="62.8458" filterUnits="userSpaceOnUse" color-interpolation-filters="sRGB">
<feFlood flood-opacity="0" result="BackgroundImageFix"/>
<feColorMatrix in="SourceAlpha" type="matrix" values="0 0 0 0 0 0 0 0 0 0 0 0 0 0 0 0 0 0 127 0" result="hardAlpha"/>
<feOffset dy="4.5112"/>
<feGaussianBlur stdDeviation="6.31568"/>
<feColorMatrix type="matrix" values="0 0 0 0 0.92549 0 0 0 0 0.372549 0 0 0 0 0.372549 0 0 0 0.25 0"/>
<feBlend mode="normal" in2="BackgroundImageFix" result="effect1_dropShadow_1_435"/>
<feBlend mode="normal" in="SourceGraphic" in2="effect1_dropShadow_1_435" result="shape"/>
</filter>
</defs>
</svg>
